<svg xmlns="http://www.w3.org/2000/svg" version="1.1" width="500px" xmlns:xlink="http://www.w3.org/1999/xlink" xmlns:svgjs="http://svgjs.dev/svgjs" viewBox="0 0 600 600"><path d="M-25.029024327736693 45.67090235475355C-13.653500442645552 19.258768820004192 -3.062491938413771 -23.236003773176137 22.042112146872682 -42.19520940061754C47.14671623215915 -61.15441502805895 97.09441673264743 -76.1910259492829 125.59860018398206 -68.08433140989489C154.1027836353167 -59.97763687050687 177.89985191331147 -26.243327991926137 193.0672128548805 6.444957835710582C208.23457379644952 39.1332436633473 230.98561139410577 97.97216044191109 216.60276583339612 128.04538355592476C202.21992027268647 158.11860666993843 140.89670605963312 179.1698622139651 106.77013949062268 186.88429651979195C72.64357292161228 194.5987308256188 37.340228195049775 186.09977350953804 11.84336641933362 174.3319893908857C-13.653495356382521 162.56420527223335 -40.065632705829145 137.72110631389998 -46.21103116367419 116.27759180787788C-52.35642962151924 94.83407730185579 -36.404548212827834 72.0830358895026 -25.029024327736693 45.67090235475355C-13.653500442645552 19.258768820004192 -3.062491938413771 -23.236003773176137 22.042112146872682 -42.19520940061754 " fill="#75abe5" stroke-width="35" stroke="#bed5f3" transform="matrix(1.269908131447266,0,0,1.269908131447266,-8.755396240566562,-26.9669013006839)"></path><defs></defs></svg>