<svg id="visual" viewBox="0 0 1920 1080" width="1920" height="1080" xmlns="http://www.w3.org/2000/svg" xmlns:xlink="http://www.w3.org/1999/xlink" version="1.1"><rect x="0" y="0" width="1920" height="1080" fill="#ffffff"></rect><defs><linearGradient id="grad1_0" x1="43.8%" y1="100%" x2="100%" y2="0%"><stop offset="14.444444444444446%" stop-color="#76ade6" stop-opacity="1"></stop><stop offset="85.55555555555554%" stop-color="#76ade6" stop-opacity="1"></stop></linearGradient></defs><defs><linearGradient id="grad1_1" x1="43.8%" y1="100%" x2="100%" y2="0%"><stop offset="14.444444444444446%" stop-color="#76ade6" stop-opacity="1"></stop><stop offset="85.55555555555554%" stop-color="#ffffff" stop-opacity="1"></stop></linearGradient></defs><defs><linearGradient id="grad2_0" x1="0%" y1="100%" x2="56.3%" y2="0%"><stop offset="14.444444444444446%" stop-color="#76ade6" stop-opacity="1"></stop><stop offset="85.55555555555554%" stop-color="#76ade6" stop-opacity="1"></stop></linearGradient></defs><defs><linearGradient id="grad2_1" x1="0%" y1="100%" x2="56.3%" y2="0%"><stop offset="14.444444444444446%" stop-color="#ffffff" stop-opacity="1"></stop><stop offset="85.55555555555554%" stop-color="#76ade6" stop-opacity="1"></stop></linearGradient></defs><g transform="translate(1920, 1080)"><path d="M-810 0C-787.4 -98.9 -764.9 -197.7 -731.7 -303.1C-698.6 -408.5 -654.9 -520.4 -572.8 -572.8C-490.6 -625.1 -370.1 -618 -268.3 -647.6C-166.4 -677.3 -83.2 -743.6 0 -810L0 0Z" fill="#bed5f3"></path><path d="M-405 0C-393.7 -49.4 -382.4 -98.9 -365.9 -151.5C-349.3 -204.2 -327.4 -260.2 -286.4 -286.4C-245.3 -312.6 -185.1 -309 -134.1 -323.8C-83.2 -338.6 -41.6 -371.8 0 -405L0 0Z" fill="#76ade6"></path></g><g transform="translate(0, 0)"><path d="M810 0C784.3 100.7 758.5 201.4 722.5 299.3C686.4 397.1 640 492.1 570.6 570.6C501.3 649.2 408.9 711.2 310 748.3C211 785.5 105.5 797.7 0 810L0 0Z" fill="#bed5f3"></path><path d="M405 0C392.1 50.4 379.3 100.7 361.2 149.6C343.2 198.6 320 246.1 285.3 285.3C250.6 324.6 204.5 355.6 155 374.2C105.5 392.7 52.8 398.9 0 405L0 0Z" fill="#76ade6"></path></g></svg>