<svg id="visual" viewBox="0 0 900 600" width="900" height="600" xmlns="http://www.w3.org/2000/svg" xmlns:xlink="http://www.w3.org/1999/xlink" version="1.1"><g fill="none" stroke="#76ade6" stroke-width="4"><circle r="56" cx="197" cy="240"></circle><circle r="2" cx="665" cy="401"></circle><circle r="31" cx="443" cy="30"></circle><circle r="6" cx="131" cy="57"></circle><circle r="40" cx="614" cy="274"></circle><circle r="21" cx="375" cy="586"></circle><circle r="51" cx="487" cy="443"></circle><circle r="47" cx="540" cy="96"></circle><circle r="25" cx="209" cy="508"></circle><circle r="7" cx="851" cy="501"></circle><circle r="44" cx="384" cy="206"></circle><circle r="10" cx="48" cy="152"></circle><circle r="38" cx="39" cy="351"></circle><circle r="32" cx="635" cy="566"></circle><circle r="47" cx="268" cy="10"></circle><circle r="4" cx="661" cy="94"></circle><circle r="22" cx="852" cy="204"></circle><circle r="46" cx="289" cy="417"></circle><circle r="33" cx="79" cy="461"></circle><circle r="15" cx="787" cy="394"></circle><circle r="49" cx="177" cy="375"></circle><circle r="20" cx="16" cy="42"></circle><circle r="6" cx="813" cy="91"></circle><circle r="19" cx="484" cy="322"></circle><circle r="11" cx="515" cy="209"></circle><circle r="45" cx="229" cy="130"></circle><circle r="33" cx="756" cy="594"></circle><circle r="33" cx="755" cy="266"></circle><circle r="13" cx="97" cy="581"></circle><circle r="8" cx="306" cy="299"></circle><circle r="27" cx="518" cy="590"></circle><circle r="24" cx="891" cy="323"></circle></g></svg>