<svg width="837" height="288" viewBox="0 0 837 288" fill="none" xmlns="http://www.w3.org/2000/svg">
<path d="M432.916 59.7005C432.916 71.8128 430.62 82.1173 426.028 90.6139C421.472 99.1106 415.254 105.601 407.372 110.084C399.526 114.531 390.704 116.755 380.905 116.755C371.035 116.755 362.176 114.513 354.331 110.03C346.485 105.546 340.284 99.0563 335.728 90.5597C331.173 82.063 328.895 71.7766 328.895 59.7005C328.895 47.5882 331.173 37.2837 335.728 28.7871C340.284 20.2904 346.485 13.8185 354.331 9.37127C362.176 4.88792 371.035 2.64624 380.905 2.64624C390.704 2.64624 399.526 4.88792 407.372 9.37127C415.254 13.8185 421.472 20.2904 426.028 28.7871C430.62 37.2837 432.916 47.5882 432.916 59.7005ZM409.107 59.7005C409.107 51.8546 407.932 45.2381 405.582 39.8508C403.268 34.4636 399.996 30.3779 395.765 27.5939C391.535 24.8099 386.582 23.4179 380.905 23.4179C375.229 23.4179 370.275 24.8099 366.045 27.5939C361.815 30.3779 358.525 34.4636 356.175 39.8508C353.861 45.2381 352.704 51.8546 352.704 59.7005C352.704 67.5464 353.861 74.1629 356.175 79.5502C358.525 84.9374 361.815 89.0231 366.045 91.8071C370.275 94.5911 375.229 95.9831 380.905 95.9831C386.582 95.9831 391.535 94.5911 395.765 91.8071C399.996 89.0231 403.268 84.9374 405.582 79.5502C407.932 74.1629 409.107 67.5464 409.107 59.7005Z" fill="#76ADE6"/>
<path d="M450.311 115.236V4.16479H494.133C502.557 4.16479 509.734 5.77374 515.663 8.99163C521.593 12.1734 526.113 16.6025 529.222 22.279C532.368 27.9193 533.94 34.4274 533.94 41.8032C533.94 49.1791 532.349 55.6872 529.168 61.3275C525.986 66.9679 521.376 71.3608 515.338 74.5064C509.336 77.652 502.069 79.2248 493.536 79.2248H465.605V60.4055H489.74C494.259 60.4055 497.983 59.6282 500.912 58.0735C503.877 56.4826 506.082 54.2952 507.528 51.5111C509.011 48.691 509.752 45.455 509.752 41.8032C509.752 38.1153 509.011 34.8974 507.528 32.1496C506.082 29.3656 503.877 27.2143 500.912 25.6957C497.947 24.141 494.187 23.3637 489.631 23.3637H473.795V115.236H450.311Z" fill="#76ADE6"/>
<path d="M617.8 4.16479H641.283V76.2961C641.283 84.3951 639.349 91.4817 635.48 97.5559C631.648 103.63 626.278 108.367 619.373 111.765C612.467 115.128 604.422 116.809 595.238 116.809C586.019 116.809 577.956 115.128 571.05 111.765C564.144 108.367 558.775 103.63 554.942 97.5559C551.11 91.4817 549.194 84.3951 549.194 76.2961V4.16479H572.677V74.2895C572.677 78.5197 573.599 82.2799 575.443 85.5701C577.323 88.8603 579.962 91.4455 583.361 93.3256C586.76 95.2057 590.719 96.1458 595.238 96.1458C599.794 96.1458 603.753 95.2057 607.116 93.3256C610.514 91.4455 613.136 88.8603 614.98 85.5701C616.86 82.2799 617.8 78.5197 617.8 74.2895V4.16479Z" fill="#76ADE6"/>
<path d="M720.858 36.1087C720.424 31.7338 718.562 28.3351 715.272 25.9127C711.982 23.4902 707.517 22.279 701.876 22.279C698.044 22.279 694.808 22.8213 692.168 23.906C689.529 24.9545 687.504 26.4188 686.094 28.299C684.72 30.1791 684.033 32.3123 684.033 34.6986C683.961 36.6872 684.377 38.4227 685.281 39.9051C686.221 41.3875 687.504 42.671 689.131 43.7557C690.758 44.8042 692.638 45.7262 694.771 46.5216C696.905 47.2809 699.183 47.9317 701.605 48.474L711.584 50.8603C716.429 51.945 720.876 53.3913 724.926 55.1991C728.975 57.0069 732.482 59.2305 735.447 61.8699C738.412 64.5092 740.708 67.6187 742.335 71.1981C743.998 74.7776 744.848 78.8813 744.884 83.5092C744.848 90.3066 743.112 96.2 739.677 101.19C736.279 106.143 731.361 109.994 724.926 112.741C718.526 115.453 710.807 116.809 701.768 116.809C692.801 116.809 684.991 115.435 678.339 112.687C671.722 109.939 666.552 105.872 662.828 100.485C659.14 95.0611 657.205 88.3542 657.025 80.3637H679.749C680.002 84.0878 681.068 87.1972 682.948 89.6919C684.865 92.1506 687.414 94.0126 690.595 95.278C693.813 96.5074 697.447 97.122 701.497 97.122C705.474 97.122 708.927 96.5435 711.855 95.3865C714.82 94.2295 717.116 92.6206 718.743 90.5597C720.37 88.4988 721.183 86.1306 721.183 83.455C721.183 80.9602 720.442 78.8632 718.96 77.1639C717.514 75.4645 715.38 74.0183 712.56 72.8251C709.776 71.632 706.36 70.5473 702.31 69.5711L690.216 66.534C680.851 64.2562 673.457 60.6948 668.034 55.8499C662.611 51.005 659.917 44.4788 659.953 36.2714C659.917 29.5463 661.707 23.671 665.322 18.6453C668.974 13.6196 673.982 9.69667 680.345 6.8765C686.709 4.05633 693.94 2.64624 702.039 2.64624C710.282 2.64624 717.477 4.05633 723.624 6.8765C729.807 9.69667 734.615 13.6196 738.05 18.6453C741.485 23.671 743.257 29.4921 743.365 36.1087H720.858Z" fill="#76ADE6"/>
<path fill-rule="evenodd" clip-rule="evenodd" d="M422.503 88.7238L422.509 88.7121C426.715 80.9298 428.916 71.3144 428.916 59.7005C428.916 48.0866 426.715 38.4712 422.509 30.6888L422.503 30.6772C418.281 22.8032 412.584 16.9049 405.406 12.855L405.396 12.8497L405.387 12.8442C398.196 8.73507 390.068 6.64624 380.905 6.64624C371.665 6.64624 363.502 8.73762 356.315 12.8442L356.303 12.8512C349.16 16.8998 343.478 22.7985 339.254 30.6772C335.079 38.4622 332.895 48.082 332.895 59.7005C332.895 71.2806 335.079 80.8829 339.254 88.6695C343.479 96.5507 349.165 102.471 356.315 106.557C363.502 110.663 371.665 112.755 380.905 112.755C390.072 112.755 398.202 110.682 405.394 106.607C412.579 102.52 418.28 96.6002 422.503 88.7238ZM407.372 110.084C399.526 114.531 390.704 116.755 380.905 116.755C371.035 116.755 362.176 114.513 354.331 110.03C346.485 105.546 340.284 99.0563 335.728 90.5597C331.173 82.063 328.895 71.7766 328.895 59.7005C328.895 47.5882 331.173 37.2837 335.728 28.7871C340.284 20.2904 346.485 13.8185 354.331 9.37127C362.176 4.88792 371.035 2.64624 380.905 2.64624C390.704 2.64624 399.526 4.88792 407.372 9.37127C415.254 13.8185 421.472 20.2904 426.028 28.7871C430.62 37.2837 432.916 47.5882 432.916 59.7005C432.916 71.8128 430.62 82.1172 426.028 90.6139C421.472 99.1106 415.254 105.601 407.372 110.084ZM356.175 39.8508C358.525 34.4636 361.815 30.3779 366.045 27.5939C370.275 24.8099 375.229 23.4179 380.905 23.4179C386.582 23.4179 391.535 24.8099 395.765 27.5939C399.996 30.3779 403.268 34.4636 405.582 39.8508C407.932 45.2381 409.107 51.8546 409.107 59.7005C409.107 67.5464 407.932 74.1629 405.582 79.5502C403.268 84.9374 399.996 89.0231 395.765 91.8071C391.535 94.5911 386.582 95.9831 380.905 95.9831C375.229 95.9831 370.275 94.5911 366.045 91.8071C361.815 89.0231 358.525 84.9374 356.175 79.5502C353.861 74.1629 352.704 67.5464 352.704 59.7005C352.704 51.8546 353.861 45.2381 356.175 39.8508ZM409.252 81.1397C406.68 87.1249 402.944 91.8713 397.964 95.1484C393.004 98.4129 387.266 99.9831 380.905 99.9831C374.545 99.9831 368.806 98.4129 363.846 95.1484C358.87 91.8732 355.117 87.1306 352.508 81.1496L352.504 81.1392L352.499 81.1288C349.912 75.1048 348.704 67.9155 348.704 59.7005C348.704 51.4854 349.912 44.2962 352.499 38.2722L352.504 38.2618L352.508 38.2514C355.117 32.2703 358.87 27.5278 363.846 24.2526C368.806 20.9881 374.545 19.4179 380.905 19.4179C387.266 19.4179 393.004 20.9881 397.964 24.2526C402.944 27.5297 406.68 32.2761 409.252 38.2613C411.88 44.2896 413.107 51.4833 413.107 59.7005C413.107 67.9177 411.88 75.1113 409.252 81.1397ZM515.663 8.99163C509.734 5.77374 502.557 4.16479 494.133 4.16479H450.311V115.236H473.795V79.2248H493.536C502.069 79.2248 509.336 77.652 515.338 74.5064C521.376 71.3608 525.986 66.9679 529.168 61.3275C532.349 55.6872 533.94 49.1791 533.94 41.8032C533.94 34.4274 532.368 27.9193 529.222 22.279C526.113 16.6025 521.593 12.1734 515.663 8.99163ZM469.795 75.2248H493.536C501.586 75.2248 508.182 73.741 513.481 70.9635L513.49 70.9589C518.878 68.1519 522.903 64.2924 525.684 59.3622C528.483 54.4009 529.94 48.5876 529.94 41.8032C529.94 35.0112 528.497 29.1917 525.729 24.2272L525.721 24.214L525.714 24.2006C522.992 19.2317 519.048 15.3469 513.772 12.5163L513.764 12.5118L513.756 12.5073C508.54 9.67684 502.053 8.16479 494.133 8.16479H454.311V111.236H469.795V83.2248V83.4678V56.4055V19.3637H489.631C494.604 19.3637 499.049 20.2068 502.752 22.1442C506.391 24.0118 509.213 26.7289 511.064 30.2784C512.903 33.7003 513.752 37.584 513.752 41.8032C513.752 46.0037 512.896 49.8914 511.074 53.3618C509.23 56.9095 506.421 59.6569 502.803 61.5981L502.795 61.6023L502.787 61.6065C499.11 63.5588 494.687 64.4055 489.74 64.4055H469.795V75.2248ZM473.795 60.4055H489.74C494.259 60.4055 497.983 59.6282 500.912 58.0735C503.877 56.4826 506.082 54.2952 507.528 51.5111C509.011 48.691 509.752 45.455 509.752 41.8032C509.752 38.1153 509.011 34.8974 507.528 32.1496C506.082 29.3656 503.877 27.2143 500.912 25.6957C497.947 24.141 494.187 23.3637 489.631 23.3637H473.795V60.4055ZM635.48 97.5559C639.349 91.4817 641.283 84.3951 641.283 76.2961V4.16479H617.8V74.2895C617.8 78.5197 616.86 82.2799 614.98 85.5701C613.136 88.8603 610.514 91.4455 607.116 93.3256C603.753 95.2057 599.794 96.1458 595.238 96.1458C590.719 96.1458 586.76 95.2057 583.361 93.3256C579.962 91.4455 577.323 88.8603 575.443 85.5701C573.599 82.2799 572.677 78.5197 572.677 74.2895V4.16479H549.194V76.2961C549.194 84.3951 551.11 91.4817 554.942 97.5559C558.775 103.63 564.144 108.367 571.05 111.765C577.956 115.128 586.019 116.809 595.238 116.809C604.422 116.809 612.467 115.128 619.373 111.765C626.278 108.367 631.648 103.63 635.48 97.5559ZM617.615 108.172C623.903 105.076 628.689 100.823 632.097 95.4214L632.102 95.4142L632.106 95.4071C635.517 90.0527 637.283 83.7315 637.283 76.2961V8.16479H621.8V74.2895C621.8 79.1275 620.719 83.5817 618.46 87.5408C616.243 91.4912 613.08 94.5963 609.058 96.8224C605.001 99.0885 600.348 100.146 595.238 100.146C590.153 100.146 585.507 99.0838 581.425 96.8258C577.402 94.6001 574.223 91.4979 571.97 87.5547L571.962 87.5403L571.954 87.5257C569.736 83.5682 568.677 79.1197 568.677 74.2895V8.16479H553.194V76.2961C553.194 83.7387 554.946 90.0651 558.325 95.4214C561.734 100.824 566.52 105.076 572.809 108.173C579.069 111.219 586.509 112.809 595.238 112.809C603.93 112.809 611.353 111.22 617.615 108.172ZM686.094 28.299C687.504 26.4188 689.529 24.9545 692.168 23.906C694.808 22.8213 698.044 22.279 701.876 22.279C707.516 22.279 711.982 23.4902 715.272 25.9127C718.562 28.3351 720.424 31.7338 720.858 36.1087H743.365C743.343 34.7414 743.249 33.408 743.085 32.1087C742.454 27.1202 740.775 22.6324 738.05 18.6453C734.615 13.6196 729.807 9.69667 723.624 6.8765C717.477 4.05633 710.282 2.64624 702.039 2.64624C693.94 2.64624 686.709 4.05633 680.345 6.8765C673.982 9.69667 668.974 13.6196 665.322 18.6453C661.707 23.671 659.917 29.5463 659.953 36.2714C659.917 44.4788 662.611 51.005 668.034 55.8499C673.457 60.6948 680.851 64.2562 690.216 66.534L702.31 69.5711C706.359 70.5473 709.776 71.632 712.56 72.8251C715.38 74.0183 717.514 75.4645 718.96 77.1639C720.442 78.8632 721.183 80.9602 721.183 83.455C721.183 86.1306 720.37 88.4988 718.743 90.5597C717.116 92.6206 714.82 94.2295 711.855 95.3865C708.927 96.5435 705.474 97.122 701.497 97.122C697.447 97.122 693.813 96.5074 690.595 95.278C687.414 94.0126 684.865 92.1506 682.948 89.6919C681.068 87.1972 680.002 84.0878 679.749 80.3637H657.025C657.056 81.7348 657.138 83.0681 657.273 84.3637C657.921 90.6181 659.773 95.9917 662.828 100.485C666.552 105.872 671.722 109.939 678.339 112.687C684.991 115.435 692.801 116.809 701.768 116.809C710.807 116.809 718.526 115.453 724.926 112.741C731.361 109.994 736.279 106.143 739.677 101.19C743.112 96.2 744.848 90.3066 744.884 83.5092C744.848 78.8813 743.998 74.7776 742.335 71.1981C740.708 67.6187 738.412 64.5092 735.447 61.8699C732.482 59.2305 728.975 57.0069 724.926 55.1991C720.876 53.3913 716.429 51.945 711.584 50.8603L701.605 48.474C699.183 47.9317 696.905 47.2809 694.771 46.5216C692.638 45.7262 690.758 44.8042 689.131 43.7557C687.504 42.671 686.221 41.3875 685.281 39.9051C684.377 38.4227 683.961 36.6872 684.033 34.6986C684.033 32.3123 684.72 30.1791 686.094 28.299ZM680.033 34.6253C679.949 37.2536 680.508 39.762 681.865 41.9875L681.884 42.0175L681.902 42.0472C683.174 44.0528 684.874 45.7247 686.912 47.0839L686.938 47.1011L686.964 47.118C688.871 48.3467 691.017 49.3907 693.374 50.2695L693.402 50.28L693.43 50.29C695.721 51.1056 698.147 51.7978 700.702 52.371C700.712 52.3731 700.721 52.3753 700.731 52.3774L710.682 54.7574L710.71 54.7637C715.326 55.797 719.516 57.1644 723.295 58.8516C727.013 60.5113 730.163 62.5212 732.787 64.8575C735.34 67.1297 737.299 69.7866 738.693 72.8533L738.7 72.8685L738.707 72.8836C740.089 75.8565 740.848 79.3718 740.884 83.5145C740.847 89.599 739.303 94.6784 736.383 98.9214L736.379 98.9265C733.479 103.154 729.214 106.559 723.365 109.058C717.583 111.508 710.424 112.809 701.768 112.809C693.202 112.809 685.934 111.496 679.869 108.992C673.9 106.512 669.371 102.911 666.126 98.2217C663.571 94.4595 661.923 89.8783 661.296 84.3637H676.28C676.905 87.223 678.041 89.8264 679.754 92.0993L679.774 92.1253L679.794 92.1509C682.189 95.2246 685.342 97.4932 689.117 98.9949L689.143 99.0049L689.168 99.0147C692.914 100.446 697.043 101.122 701.497 101.122C705.846 101.122 709.816 100.491 713.316 99.1102C716.8 97.7495 719.731 95.7633 721.882 93.0383C724.078 90.257 725.183 87.0115 725.183 83.455C725.183 80.1124 724.166 77.057 721.991 74.5535C720.022 72.2475 717.308 70.4917 714.128 69.1453C711.084 67.8411 707.448 66.6959 703.266 65.687C703.26 65.6855 703.254 65.684 703.247 65.6825L691.176 62.6508L691.161 62.6473C682.236 60.4762 675.499 57.1546 670.699 52.8668C666.245 48.8876 663.921 43.515 663.953 36.289L663.953 36.2694L663.953 36.2499C663.921 30.2967 665.489 25.2659 668.565 20.9881C671.754 16.6025 676.171 13.1017 681.966 10.5335C687.742 7.97348 694.408 6.64624 702.039 6.64624C709.83 6.64624 716.434 7.97867 721.956 10.5121L721.964 10.5158C727.563 13.0696 731.771 16.5465 734.748 20.9023C737 24.1979 738.446 27.9128 739.049 32.1087H724.167C723.096 28.3068 720.929 25.1106 717.644 22.6915C713.448 19.6026 708.052 18.279 701.876 18.279C697.7 18.279 693.922 18.8653 690.67 20.1971C687.499 21.4606 684.826 23.3229 682.894 25.899L682.879 25.9188L682.864 25.9389C680.991 28.5024 680.048 31.4413 680.033 34.6253Z" fill="#76ADE6"/>
<path d="M391.101 185.544C390.667 181.169 388.805 177.771 385.515 175.348C382.225 172.926 377.76 171.715 372.119 171.715C368.287 171.715 365.051 172.257 362.411 173.342C359.772 174.39 357.747 175.854 356.337 177.735C354.963 179.615 354.276 181.748 354.276 184.134C354.204 186.123 354.62 187.858 355.524 189.341C356.464 190.823 357.747 192.107 359.374 193.191C361.001 194.24 362.882 195.162 365.015 195.957C367.148 196.716 369.426 197.367 371.848 197.91L381.827 200.296C386.672 201.381 391.119 202.827 395.169 204.635C399.218 206.442 402.725 208.666 405.69 211.305C408.655 213.945 410.951 217.054 412.578 220.634C414.241 224.213 415.091 228.317 415.127 232.945C415.091 239.742 413.355 245.636 409.921 250.625C406.522 255.578 401.605 259.429 395.169 262.177C388.769 264.889 381.05 266.245 372.011 266.245C363.044 266.245 355.234 264.871 348.582 262.123C341.965 259.375 336.795 255.307 333.071 249.92C329.383 244.497 327.449 237.79 327.268 229.799H349.992C350.245 233.523 351.312 236.633 353.192 239.127C355.108 241.586 357.657 243.448 360.839 244.714C364.057 245.943 367.69 246.558 371.74 246.558C375.717 246.558 379.17 245.979 382.098 244.822C385.063 243.665 387.359 242.056 388.986 239.995C390.613 237.934 391.427 235.566 391.427 232.891C391.427 230.396 390.686 228.299 389.203 226.599C387.757 224.9 385.624 223.454 382.803 222.261C380.019 221.068 376.603 219.983 372.553 219.007L360.459 215.97C351.095 213.692 343.701 210.13 338.277 205.285C332.854 200.441 330.16 193.914 330.196 185.707C330.16 178.982 331.95 173.107 335.566 168.081C339.217 163.055 344.225 159.132 350.588 156.312C356.952 153.492 364.183 152.082 372.282 152.082C380.526 152.082 387.721 153.492 393.867 156.312C400.05 159.132 404.859 163.055 408.294 168.081C411.728 173.107 413.5 178.928 413.608 185.544H391.101Z" fill="#76ADE6"/>
<path d="M426.692 172.962V153.6H517.914V172.962H483.909V264.672H460.697V172.962H426.692Z" fill="#76ADE6"/>
<path d="M538.51 264.672H513.345L551.688 153.6H581.951L620.24 264.672H595.076L567.254 178.982H566.386L538.51 264.672ZM536.937 221.013H596.377V239.344H536.937V221.013Z" fill="#76ADE6"/>
<path d="M726.39 192.486H702.635C702.202 189.413 701.316 186.683 699.978 184.297C698.64 181.874 696.923 179.813 694.826 178.114C692.729 176.415 690.306 175.113 687.558 174.209C684.847 173.305 681.9 172.853 678.718 172.853C672.969 172.853 667.962 174.282 663.695 177.138C659.429 179.958 656.121 184.08 653.771 189.503C651.42 194.891 650.245 201.435 650.245 209.136C650.245 217.054 651.42 223.707 653.771 229.094C656.157 234.481 659.483 238.549 663.75 241.297C668.016 244.045 672.951 245.419 678.555 245.419C681.701 245.419 684.612 245.003 687.287 244.171C689.999 243.34 692.403 242.128 694.5 240.538C696.597 238.911 698.333 236.94 699.707 234.626C701.117 232.312 702.093 229.673 702.635 226.708L726.39 226.816C725.775 231.914 724.239 236.832 721.78 241.568C719.358 246.268 716.085 250.48 711.964 254.205C707.878 257.892 702.997 260.821 697.32 262.99C691.68 265.124 685.299 266.19 678.176 266.19C668.269 266.19 659.411 263.949 651.601 259.465C643.828 254.982 637.681 248.492 633.162 239.995C628.678 231.499 626.437 221.212 626.437 209.136C626.437 197.024 628.714 186.719 633.27 178.223C637.826 169.726 644.008 163.254 651.818 158.807C659.628 154.323 668.414 152.082 678.176 152.082C684.612 152.082 690.577 152.986 696.073 154.793C701.605 156.601 706.504 159.241 710.771 162.712C715.037 166.146 718.508 170.359 721.183 175.348C723.895 180.338 725.631 186.05 726.39 192.486Z" fill="#76ADE6"/>
<path d="M743.23 264.672V153.6H766.713V202.574H768.177L808.148 153.6H836.295L795.077 203.333L836.783 264.672H808.69L778.265 219.007L766.713 233.107V264.672H743.23Z" fill="#76ADE6"/>
<path fill-rule="evenodd" clip-rule="evenodd" d="M356.337 177.735C357.747 175.854 359.772 174.39 362.411 173.342C365.051 172.257 368.287 171.715 372.119 171.715C377.76 171.715 382.225 172.926 385.515 175.348C388.805 177.771 390.667 181.169 391.101 185.544H413.608C413.586 184.177 413.493 182.844 413.328 181.544C412.697 176.556 411.019 172.068 408.294 168.081C404.859 163.055 400.05 159.132 393.867 156.312C387.721 153.492 380.526 152.082 372.282 152.082C364.183 152.082 356.952 153.492 350.588 156.312C344.225 159.132 339.217 163.055 335.566 168.081C331.95 173.107 330.16 178.982 330.196 185.707C330.16 193.914 332.854 200.441 338.277 205.285C343.701 210.13 351.095 213.692 360.459 215.97L372.553 219.007C376.603 219.983 380.019 221.068 382.803 222.261C385.624 223.454 387.757 224.9 389.203 226.599C390.686 228.299 391.427 230.396 391.427 232.891C391.427 235.566 390.613 237.934 388.986 239.995C387.359 242.056 385.063 243.665 382.098 244.822C379.17 245.979 375.717 246.558 371.74 246.558C367.69 246.558 364.057 245.943 360.839 244.714C357.657 243.448 355.108 241.586 353.192 239.127C351.312 236.633 350.245 233.523 349.992 229.799H327.268C327.299 231.17 327.381 232.504 327.516 233.799C328.164 240.054 330.016 245.427 333.071 249.92C336.795 255.307 341.965 259.375 348.582 262.123C355.234 264.871 363.044 266.245 372.011 266.245C381.05 266.245 388.769 264.889 395.169 262.177C401.605 259.429 406.522 255.578 409.921 250.625C413.355 245.636 415.091 239.742 415.127 232.945C415.091 228.317 414.241 224.213 412.578 220.634C410.951 217.054 408.655 213.945 405.69 211.305C402.725 208.666 399.218 206.442 395.169 204.635C391.119 202.827 386.672 201.381 381.827 200.296L371.848 197.91C369.426 197.367 367.148 196.716 365.015 195.957C362.882 195.162 361.001 194.24 359.374 193.191C357.747 192.107 356.464 190.823 355.524 189.341C354.62 187.858 354.204 186.123 354.276 184.134C354.276 181.748 354.963 179.615 356.337 177.735ZM370.945 201.806C368.39 201.233 365.965 200.541 363.673 199.726L363.645 199.716L363.617 199.705C361.26 198.826 359.114 197.782 357.208 196.554L357.181 196.537L357.156 196.519C355.117 195.16 353.418 193.488 352.146 191.483L352.127 191.453L352.109 191.423C350.752 189.198 350.193 186.689 350.277 184.061C350.291 180.877 351.234 177.938 353.108 175.374L353.122 175.354L353.137 175.335C355.069 172.758 357.742 170.896 360.913 169.633C364.165 168.301 367.943 167.715 372.119 167.715C378.295 167.715 383.691 169.038 387.887 172.127C391.172 174.546 393.339 177.742 394.41 181.544H409.292C408.689 177.348 407.243 173.633 404.991 170.338C402.014 165.982 397.806 162.505 392.207 159.951L392.199 159.948C386.678 157.414 380.073 156.082 372.282 156.082C364.651 156.082 357.985 157.409 352.209 159.969C346.414 162.537 341.996 166.039 338.807 170.425C335.732 174.702 334.164 179.733 334.196 185.685L334.196 185.705L334.196 185.725C334.165 192.951 336.488 198.323 340.942 202.302C345.742 206.59 352.479 209.912 361.404 212.083L361.419 212.086L373.509 215.123C377.691 216.131 381.327 217.277 384.371 218.581C387.551 219.927 390.265 221.683 392.234 223.989C394.41 226.493 395.427 229.548 395.427 232.891C395.427 236.447 394.321 239.693 392.126 242.474C389.975 245.199 387.044 247.185 383.56 248.545C380.06 249.927 376.09 250.558 371.74 250.558C367.286 250.558 363.157 249.881 359.411 248.45L359.386 248.44L359.36 248.43C355.585 246.929 352.432 244.66 350.037 241.586L350.017 241.561L349.997 241.535C348.284 239.262 347.148 236.659 346.523 233.799H331.539C332.166 239.314 333.815 243.896 336.37 247.658C339.615 252.348 344.144 255.948 350.114 258.428C356.178 260.932 363.446 262.245 372.011 262.245C380.667 262.245 387.825 260.944 393.607 258.495C399.457 255.995 403.722 252.589 406.622 248.362L406.626 248.357C409.547 244.114 411.09 239.035 411.127 232.95C411.091 228.807 410.332 225.292 408.95 222.319L408.943 222.304L408.937 222.289C407.543 219.222 405.583 216.565 403.031 214.293C400.406 211.957 397.256 209.947 393.538 208.287C389.759 206.6 385.569 205.233 380.953 204.199L380.925 204.193L370.945 201.806ZM460.697 172.962V264.672H483.909V172.962H517.914V153.6H426.692V172.962H460.697ZM430.692 168.962H464.697V260.672H479.909V168.962H513.914V157.6H430.692V168.962ZM595.076 264.672H620.24L581.951 153.6H551.688L513.345 264.672H538.51L546.749 239.344H586.852L595.076 264.672ZM591 238.736L597.982 260.672H614.63L599.58 217.013L591 238.736ZM599.58 217.013L579.099 157.6H554.539L532.937 220.177L547.205 225.013L563.481 174.982H570.16L586.405 225.013L599.58 217.013ZM580.9 221.013L567.254 178.982H566.386L552.712 221.013H580.9ZM586.405 225.013H547.205L543.879 235.236L589.759 235.344L586.405 225.013ZM541.241 243.344L547.205 225.013L532.937 220.177L526.703 238.236L541.241 243.344ZM599.58 217.013L586.405 225.013L589.759 235.344L591 238.736L599.58 217.013ZM532.937 220.177L526.703 238.236L541.241 243.344L535.604 260.672H518.957L532.937 220.177ZM653.771 229.094C651.42 223.707 650.245 217.054 650.245 209.136C650.245 201.435 651.42 194.891 653.771 189.503C656.121 184.08 659.429 179.958 663.695 177.138C667.962 174.282 672.969 172.853 678.718 172.853C681.9 172.853 684.847 173.305 687.558 174.209C690.306 175.113 692.729 176.415 694.826 178.114C696.923 179.813 698.64 181.874 699.978 184.297C701.316 186.683 702.202 189.413 702.635 192.486H726.39C726.229 191.12 726.024 189.787 725.775 188.486C724.85 183.658 723.32 179.279 721.183 175.348C718.508 170.359 715.037 166.146 710.771 162.712C706.504 159.241 701.605 156.601 696.073 154.793C690.577 152.986 684.612 152.082 678.176 152.082C668.414 152.082 659.628 154.323 651.818 158.807C644.008 163.254 637.826 169.726 633.27 178.223C628.714 186.719 626.437 197.024 626.437 209.136C626.437 221.212 628.678 231.499 633.162 239.995C637.681 248.492 643.828 254.982 651.601 259.465C659.411 263.949 668.269 266.19 678.176 266.19C685.299 266.19 691.68 265.124 697.32 262.99C702.997 260.821 707.878 257.892 711.964 254.205C716.085 250.48 719.358 246.268 721.78 241.568C723.59 238.081 724.9 234.496 725.711 230.813C726.001 229.494 726.228 228.161 726.39 226.816L702.635 226.708C702.093 229.673 701.117 232.312 699.707 234.626C698.333 236.94 696.597 238.911 694.5 240.538C692.403 242.128 689.999 243.34 687.287 244.171C684.612 245.003 681.701 245.419 678.555 245.419C672.951 245.419 668.016 244.045 663.75 241.297C659.483 238.549 656.157 234.481 653.771 229.094ZM703.134 236.688C701.51 239.419 699.445 241.764 696.952 243.698L696.935 243.711L696.918 243.724C694.421 245.618 691.592 247.034 688.47 247.992C685.367 248.956 682.053 249.419 678.555 249.419C672.266 249.419 666.562 247.866 661.584 244.66C656.56 241.424 652.764 236.698 650.113 230.714L650.109 230.704L650.104 230.694C647.472 224.659 646.245 217.424 646.245 209.136C646.245 201.05 647.476 193.931 650.101 187.91C652.709 181.894 656.476 177.118 661.48 173.807C666.48 170.463 672.28 168.853 678.718 168.853C682.279 168.853 685.655 169.359 688.816 170.412C691.989 171.457 694.845 172.982 697.344 175.006C699.848 177.036 701.893 179.495 703.473 182.351C704.537 184.252 705.345 186.303 705.913 188.486H721.696C720.831 184.325 719.48 180.591 717.669 177.258L717.664 177.248L717.658 177.239C715.227 172.705 712.097 168.915 708.262 165.827L708.254 165.821L708.246 165.815C704.382 162.671 699.923 160.26 694.831 158.596L694.823 158.593C689.773 156.932 684.234 156.082 678.176 156.082C669.052 156.082 660.963 158.169 653.81 162.276L653.797 162.283C646.69 166.33 641.022 172.229 636.795 180.113C632.621 187.898 630.437 197.518 630.437 209.136C630.437 220.723 632.587 230.333 636.697 238.124C640.889 246.002 646.521 251.916 653.593 255.996M703.134 236.688C704.257 234.842 705.134 232.848 705.777 230.722L721.609 230.795C720.868 233.834 719.744 236.809 718.23 239.725L718.224 239.736C716.034 243.986 713.065 247.819 709.282 251.237C705.602 254.559 701.16 257.24 695.901 259.251C690.788 261.184 684.899 262.19 678.176 262.19C668.896 262.19 660.737 260.097 653.593 255.996M766.713 153.6H743.23V264.672H766.713V233.107L778.265 219.007L808.69 264.672H836.783L795.077 203.333L836.295 153.6H808.148L768.177 202.574H766.713V153.6ZM810.046 157.6L770.076 206.574H762.713V157.6H747.23V260.672H762.713V231.678L778.596 212.29L810.832 260.672H829.227L790.079 203.096L827.785 157.6H810.046Z" fill="#76ADE6"/>
<mask id="mask0_44_2" style="mask-type:luminance" maskUnits="userSpaceOnUse" x="0" y="0" width="82" height="288">
<path d="M0 0H81.3528V287.019H0V0Z" fill="white"/>
</mask>
<g mask="url(#mask0_44_2)">
<path d="M0 0H80.375V286.671H0V0Z" fill="#76ADE6"/>
<path fill-rule="evenodd" clip-rule="evenodd" d="M76.375 4H4V282.671H76.375V4ZM0 0V286.671H80.375V0H0Z" fill="white"/>
</g>
<mask id="mask1_44_2" style="mask-type:luminance" maskUnits="userSpaceOnUse" x="107" y="0" width="82" height="288">
<path d="M107.048 0H188.401V287.019H107.048V0Z" fill="white"/>
<path fill-rule="evenodd" clip-rule="evenodd" d="M184.401 4H111.048V283.019H184.401V4ZM107.048 0V287.019H188.401V0H107.048Z" fill="white"/>
</mask>
<g mask="url(#mask1_44_2)">
<path d="M109.048 2H185.423V284.671H109.048V2Z" fill="#BED5F3" stroke="white" stroke-width="4"/>
<mask id="path-11-inside-1_44_2" fill="white">
<path fill-rule="evenodd" clip-rule="evenodd" d="M183.423 4H111.048V282.671H183.423V4ZM107.048 0V286.671H187.423V0H107.048Z"/>
</mask>
<path fill-rule="evenodd" clip-rule="evenodd" d="M183.423 4H111.048V282.671H183.423V4ZM107.048 0V286.671H187.423V0H107.048Z" fill="#BED5F3"/>
<path d="M111.048 4V0H107.048V4H111.048ZM183.423 4H187.423V0H183.423V4ZM111.048 282.671H107.048V286.671H111.048V282.671ZM183.423 282.671V286.671H187.423V282.671H183.423ZM107.048 0V-4H103.048V0H107.048ZM107.048 286.671H103.048V290.671H107.048V286.671ZM187.423 286.671V290.671H191.423V286.671H187.423ZM187.423 0H191.423V-4H187.423V0ZM111.048 8H183.423V0H111.048V8ZM115.048 282.671V4H107.048V282.671H115.048ZM183.423 278.671H111.048V286.671H183.423V278.671ZM179.423 4V282.671H187.423V4H179.423ZM107.048 4H187.423V-4H107.048V4ZM111.048 286.671V0H103.048V286.671H111.048ZM187.423 282.671H107.048V290.671H187.423V282.671ZM183.423 0V286.671H191.423V0H183.423Z" fill="white" mask="url(#path-11-inside-1_44_2)"/>
</g>
<mask id="mask2_44_2" style="mask-type:luminance" maskUnits="userSpaceOnUse" x="212" y="0" width="82" height="288">
<path d="M212.406 0H293.759V287.019H212.406V0Z" fill="white"/>
</mask>
<g mask="url(#mask2_44_2)">
<path d="M214.406 2H290.781V284.671H214.406V2Z" fill="white" stroke="#BED5F3" stroke-width="4"/>
</g>
</svg>
