<svg width="837" height="288" viewBox="0 0 837 288" fill="none" xmlns="http://www.w3.org/2000/svg">
<path d="M432.916 60.4644C432.916 72.5767 430.62 82.8812 426.028 91.3778C421.472 99.8745 415.254 106.365 407.372 110.848C399.526 115.295 390.704 117.519 380.905 117.519C371.035 117.519 362.176 115.277 354.331 110.794C346.485 106.31 340.284 99.8203 335.728 91.3236C331.173 82.8269 328.895 72.5405 328.895 60.4644C328.895 48.3521 331.173 38.0477 335.728 29.551C340.284 21.0543 346.485 14.5824 354.331 10.1352C362.176 5.65183 371.035 3.41016 380.905 3.41016C390.704 3.41016 399.526 5.65183 407.372 10.1352C415.254 14.5824 421.472 21.0543 426.028 29.551C430.62 38.0477 432.916 48.3521 432.916 60.4644ZM409.107 60.4644C409.107 52.6185 407.932 46.002 405.582 40.6147C403.268 35.2275 399.996 31.1419 395.765 28.3578C391.535 25.5738 386.582 24.1818 380.905 24.1818C375.229 24.1818 370.275 25.5738 366.045 28.3578C361.815 31.1419 358.525 35.2275 356.175 40.6147C353.861 46.002 352.704 52.6185 352.704 60.4644C352.704 68.3103 353.861 74.9268 356.175 80.3141C358.525 85.7013 361.815 89.787 366.045 92.571C370.275 95.355 375.229 96.747 380.905 96.747C386.582 96.747 391.535 95.355 395.765 92.571C399.996 89.787 403.268 85.7013 405.582 80.3141C407.932 74.9268 409.107 68.3103 409.107 60.4644Z" fill="white"/>
<path d="M450.311 116V4.92871H494.133C502.557 4.92871 509.734 6.53766 515.663 9.75555C521.593 12.9373 526.113 17.3664 529.222 23.0429C532.368 28.6832 533.94 35.1913 533.94 42.5672C533.94 49.943 532.349 56.4511 529.168 62.0914C525.986 67.7318 521.376 72.1247 515.338 75.2703C509.336 78.4159 502.069 79.9887 493.536 79.9887H465.605V61.1694H489.74C494.259 61.1694 497.983 60.3921 500.912 58.8374C503.877 57.2465 506.082 55.0591 507.528 52.2751C509.011 49.4549 509.752 46.2189 509.752 42.5672C509.752 38.8792 509.011 35.6614 507.528 32.9135C506.082 30.1295 503.877 27.9782 500.912 26.4596C497.947 24.9049 494.187 24.1276 489.631 24.1276H473.795V116H450.311Z" fill="white"/>
<path d="M617.8 4.92871H641.283V77.06C641.283 85.159 639.349 92.2456 635.48 98.3198C631.648 104.394 626.278 109.13 619.373 112.529C612.467 115.892 604.422 117.573 595.238 117.573C586.019 117.573 577.956 115.892 571.05 112.529C564.144 109.13 558.775 104.394 554.942 98.3198C551.11 92.2456 549.194 85.159 549.194 77.06V4.92871H572.677V75.0534C572.677 79.2836 573.599 83.0439 575.443 86.3341C577.323 89.6243 579.962 92.2094 583.361 94.0895C586.76 95.9697 590.719 96.9097 595.238 96.9097C599.794 96.9097 603.753 95.9697 607.116 94.0895C610.514 92.2094 613.136 89.6243 614.98 86.3341C616.86 83.0439 617.8 79.2836 617.8 75.0534V4.92871Z" fill="white"/>
<path d="M720.858 36.8726C720.424 32.4977 718.562 29.099 715.272 26.6766C711.982 24.2541 707.517 23.0429 701.876 23.0429C698.044 23.0429 694.808 23.5852 692.168 24.6699C689.529 25.7184 687.504 27.1828 686.094 29.0629C684.72 30.943 684.033 33.0762 684.033 35.4625C683.961 37.4511 684.377 39.1866 685.281 40.669C686.221 42.1514 687.504 43.4349 689.131 44.5196C690.758 45.5681 692.638 46.4901 694.771 47.2855C696.905 48.0448 699.183 48.6956 701.605 49.2379L711.584 51.6242C716.429 52.7089 720.876 54.1552 724.926 55.963C728.975 57.7708 732.482 59.9944 735.447 62.6338C738.412 65.2732 740.708 68.3826 742.335 71.962C743.998 75.5415 744.848 79.6452 744.884 84.2732C744.848 91.0705 743.112 96.9639 739.677 101.953C736.279 106.907 731.361 110.757 724.926 113.505C718.526 116.217 710.807 117.573 701.768 117.573C692.801 117.573 684.991 116.199 678.339 113.451C671.722 110.703 666.552 106.636 662.828 101.248C659.14 95.825 657.205 89.1181 657.025 81.1276H679.749C680.002 84.8517 681.068 87.9611 682.948 90.4559C684.865 92.9145 687.414 94.7765 690.595 96.042C693.813 97.2713 697.447 97.8859 701.497 97.8859C705.474 97.8859 708.927 97.3074 711.855 96.1504C714.82 94.9934 717.116 93.3845 718.743 91.3236C720.37 89.2627 721.183 86.8945 721.183 84.2189C721.183 81.7242 720.442 79.6271 718.96 77.9278C717.514 76.2284 715.38 74.7822 712.56 73.5891C709.776 72.3959 706.36 71.3112 702.31 70.335L690.216 67.2979C680.851 65.0201 673.457 61.4587 668.034 56.6138C662.611 51.7689 659.917 45.2427 659.953 37.0353C659.917 30.3103 661.707 24.4349 665.322 19.4092C668.974 14.3835 673.982 10.4606 680.345 7.64042C686.709 4.82024 693.94 3.41016 702.039 3.41016C710.282 3.41016 717.477 4.82024 723.624 7.64042C729.807 10.4606 734.615 14.3835 738.05 19.4092C741.485 24.4349 743.257 30.256 743.365 36.8726H720.858Z" fill="white"/>
<path fill-rule="evenodd" clip-rule="evenodd" d="M422.503 89.4877L422.509 89.4761C426.715 81.6937 428.916 72.0783 428.916 60.4644C428.916 48.8505 426.715 39.2351 422.509 31.4527L422.503 31.4411C418.281 23.5671 412.584 17.6688 405.406 13.6189L405.396 13.6136L405.387 13.6082C398.196 9.49898 390.068 7.41016 380.905 7.41016C371.665 7.41016 363.502 9.50154 356.315 13.6082L356.303 13.6151C349.16 17.6637 343.478 23.5624 339.254 31.4411C335.079 39.2261 332.895 48.8459 332.895 60.4644C332.895 72.0445 335.079 81.6469 339.254 89.4335C343.479 97.3146 349.165 103.235 356.315 107.321C363.502 111.427 371.665 113.519 380.905 113.519C390.072 113.519 398.202 111.446 405.394 107.371C412.579 103.284 418.28 97.3641 422.503 89.4877ZM407.372 110.848C399.526 115.295 390.704 117.519 380.905 117.519C371.035 117.519 362.176 115.277 354.331 110.794C346.485 106.31 340.284 99.8203 335.728 91.3236C331.173 82.8269 328.895 72.5405 328.895 60.4644C328.895 48.3521 331.173 38.0477 335.728 29.551C340.284 21.0543 346.485 14.5824 354.331 10.1352C362.176 5.65183 371.035 3.41016 380.905 3.41016C390.704 3.41016 399.526 5.65183 407.372 10.1352C415.254 14.5824 421.472 21.0543 426.028 29.551C430.62 38.0477 432.916 48.3521 432.916 60.4644C432.916 72.5767 430.62 82.8812 426.028 91.3778C421.472 99.8745 415.254 106.365 407.372 110.848ZM356.175 40.6147C358.525 35.2275 361.815 31.1419 366.045 28.3578C370.275 25.5738 375.229 24.1818 380.905 24.1818C386.582 24.1818 391.535 25.5738 395.765 28.3578C399.996 31.1419 403.268 35.2275 405.582 40.6147C407.932 46.002 409.107 52.6185 409.107 60.4644C409.107 68.3103 407.932 74.9268 405.582 80.3141C403.268 85.7013 399.996 89.787 395.765 92.571C391.535 95.355 386.582 96.747 380.905 96.747C375.229 96.747 370.275 95.355 366.045 92.571C361.815 89.787 358.525 85.7013 356.175 80.3141C353.861 74.9268 352.704 68.3103 352.704 60.4644C352.704 52.6185 353.861 46.002 356.175 40.6147ZM409.252 81.9036C406.68 87.8888 402.944 92.6352 397.964 95.9123C393.004 99.1768 387.266 100.747 380.905 100.747C374.545 100.747 368.806 99.1768 363.846 95.9123C358.87 92.6371 355.117 87.8946 352.508 81.9135L352.504 81.9031L352.499 81.8927C349.912 75.8687 348.704 68.6795 348.704 60.4644C348.704 52.2493 349.912 45.0601 352.499 39.0361L352.504 39.0257L352.508 39.0153C355.117 33.0343 358.87 28.2917 363.846 25.0165C368.806 21.752 374.545 20.1818 380.905 20.1818C387.266 20.1818 393.004 21.752 397.964 25.0165C402.944 28.2936 406.68 33.04 409.252 39.0252C411.88 45.0536 413.107 52.2472 413.107 60.4644C413.107 68.6816 411.88 75.8753 409.252 81.9036ZM515.663 9.75555C509.734 6.53765 502.557 4.92871 494.133 4.92871H450.311V116H473.795V79.9887H493.536C502.069 79.9887 509.336 78.4159 515.338 75.2703C521.376 72.1247 525.986 67.7318 529.168 62.0914C532.349 56.4511 533.94 49.943 533.94 42.5672C533.94 35.1913 532.368 28.6832 529.222 23.0429C526.113 17.3664 521.593 12.9373 515.663 9.75555ZM469.795 75.9887H493.536C501.586 75.9887 508.182 74.5049 513.481 71.7274L513.49 71.7228C518.878 68.9158 522.903 65.0563 525.684 60.1261C528.483 55.1648 529.94 49.3515 529.94 42.5672C529.94 35.7751 528.497 29.9557 525.729 24.9912L525.721 24.9779L525.714 24.9646C522.992 19.9957 519.048 16.1109 513.772 13.2802L513.764 13.2757L513.756 13.2712C508.54 10.4408 502.053 8.92871 494.133 8.92871H454.311V112H469.795V83.9887V84.2318V57.1694V20.1276H489.631C494.604 20.1276 499.049 20.9707 502.752 22.9081C506.391 24.7757 509.213 27.4928 511.064 31.0423C512.903 34.4642 513.752 38.3479 513.752 42.5672C513.752 46.7677 512.896 50.6553 511.074 54.1257C509.23 57.6734 506.421 60.4208 502.803 62.362L502.795 62.3662L502.787 62.3704C499.11 64.3227 494.687 65.1694 489.74 65.1694H469.795V75.9887ZM473.795 61.1694H489.74C494.259 61.1694 497.983 60.3921 500.912 58.8374C503.877 57.2465 506.082 55.0591 507.528 52.2751C509.011 49.4549 509.752 46.2189 509.752 42.5672C509.752 38.8792 509.011 35.6614 507.528 32.9135C506.082 30.1295 503.877 27.9782 500.912 26.4596C497.947 24.9049 494.187 24.1276 489.631 24.1276H473.795V61.1694ZM635.48 98.3198C639.349 92.2456 641.283 85.159 641.283 77.06V4.92871H617.8V75.0534C617.8 79.2836 616.86 83.0439 614.98 86.3341C613.136 89.6243 610.514 92.2094 607.116 94.0895C603.753 95.9697 599.794 96.9097 595.238 96.9097C590.719 96.9097 586.76 95.9697 583.361 94.0895C579.962 92.2094 577.323 89.6243 575.443 86.3341C573.599 83.0439 572.677 79.2836 572.677 75.0534V4.92871H549.194V77.06C549.194 85.159 551.11 92.2456 554.942 98.3198C558.775 104.394 564.144 109.13 571.05 112.529C577.956 115.892 586.019 117.573 595.238 117.573C604.422 117.573 612.467 115.892 619.373 112.529C626.278 109.13 631.648 104.394 635.48 98.3198ZM617.615 108.936C623.903 105.84 628.689 101.587 632.097 96.1853L632.102 96.1782L632.106 96.171C635.517 90.8166 637.283 84.4954 637.283 77.06V8.92871H621.8V75.0534C621.8 79.8914 620.719 84.3456 618.46 88.3047C616.243 92.2551 613.08 95.3602 609.058 97.5863C605.001 99.8524 600.348 100.91 595.238 100.91C590.153 100.91 585.507 99.8477 581.425 97.5897C577.402 95.364 574.223 92.2618 571.97 88.3186L571.962 88.3042L571.954 88.2896C569.736 84.3322 568.677 79.8836 568.677 75.0534V8.92871H553.194V77.06C553.194 84.5027 554.946 90.829 558.325 96.1853C561.734 101.588 566.52 105.84 572.809 108.937C579.069 111.983 586.509 113.573 595.238 113.573C603.93 113.573 611.353 111.984 617.615 108.936ZM686.094 29.0629C687.504 27.1828 689.529 25.7184 692.168 24.6699C694.808 23.5852 698.044 23.0429 701.876 23.0429C707.516 23.0429 711.982 24.2541 715.272 26.6766C718.562 29.099 720.424 32.4977 720.858 36.8726H743.365C743.343 35.5053 743.249 34.1719 743.085 32.8726C742.454 27.8841 740.775 23.3964 738.05 19.4092C734.615 14.3835 729.807 10.4606 723.624 7.64042C717.477 4.82024 710.282 3.41016 702.039 3.41016C693.94 3.41016 686.709 4.82024 680.345 7.64042C673.982 10.4606 668.974 14.3835 665.322 19.4092C661.707 24.4349 659.917 30.3103 659.953 37.0353C659.917 45.2427 662.611 51.7689 668.034 56.6138C673.457 61.4587 680.851 65.0201 690.216 67.2979L702.31 70.335C706.359 71.3112 709.776 72.3959 712.56 73.5891C715.38 74.7822 717.514 76.2284 718.96 77.9278C720.442 79.6271 721.183 81.7242 721.183 84.2189C721.183 86.8945 720.37 89.2627 718.743 91.3236C717.116 93.3845 714.82 94.9934 711.855 96.1504C708.927 97.3074 705.474 97.8859 701.497 97.8859C697.447 97.8859 693.813 97.2713 690.595 96.042C687.414 94.7765 684.865 92.9145 682.948 90.4559C681.068 87.9611 680.002 84.8517 679.749 81.1276H657.025C657.056 82.4987 657.138 83.8321 657.273 85.1276C657.921 91.382 659.773 96.7557 662.828 101.248C666.552 106.636 671.722 110.703 678.339 113.451C684.991 116.199 692.801 117.573 701.768 117.573C710.807 117.573 718.526 116.217 724.926 113.505C731.361 110.757 736.279 106.907 739.677 101.953C743.112 96.9639 744.848 91.0705 744.884 84.2732C744.848 79.6452 743.998 75.5415 742.335 71.962C740.708 68.3826 738.412 65.2732 735.447 62.6338C732.482 59.9944 728.975 57.7708 724.926 55.963C720.876 54.1552 716.429 52.7089 711.584 51.6242L701.605 49.2379C699.183 48.6956 696.905 48.0448 694.771 47.2855C692.638 46.4901 690.758 45.5681 689.131 44.5196C687.504 43.4349 686.221 42.1514 685.281 40.669C684.377 39.1866 683.961 37.4511 684.033 35.4625C684.033 33.0762 684.72 30.943 686.094 29.0629ZM680.033 35.3893C679.949 38.0175 680.508 40.5259 681.865 42.7514L681.884 42.7814L681.902 42.8111C683.174 44.8167 684.874 46.4886 686.912 47.8478L686.938 47.865L686.964 47.8819C688.871 49.1107 691.017 50.1546 693.374 51.0334L693.402 51.0439L693.43 51.0539C695.721 51.8695 698.147 52.5617 700.702 53.1349C700.712 53.137 700.721 53.1392 700.731 53.1413L710.682 55.5213L710.71 55.5276C715.326 56.5609 719.516 57.9283 723.295 59.6155C727.013 61.2753 730.163 63.2851 732.787 65.6214C735.34 67.8936 737.299 70.5505 738.693 73.6172L738.7 73.6324L738.707 73.6476C740.089 76.6204 740.848 80.1357 740.884 84.2784C740.847 90.363 739.303 95.4424 736.383 99.6853L736.379 99.6904C733.479 103.917 729.214 107.323 723.365 109.822C717.583 112.272 710.424 113.573 701.768 113.573C693.202 113.573 685.934 112.26 679.869 109.756C673.9 107.276 669.371 103.675 666.126 98.9857C663.571 95.2234 661.923 90.6422 661.296 85.1276H676.28C676.905 87.9869 678.041 90.5903 679.754 92.8633L679.774 92.8892L679.794 92.9148C682.189 95.9885 685.342 98.2571 689.117 99.7588L689.143 99.7689L689.168 99.7786C692.914 101.21 697.043 101.886 701.497 101.886C705.846 101.886 709.816 101.255 713.316 99.8741C716.8 98.5134 719.731 96.5272 721.882 93.8022C724.078 91.0209 725.183 87.7754 725.183 84.2189C725.183 80.8763 724.166 77.8209 721.991 75.3174C720.022 73.0115 717.308 71.2557 714.128 69.9092C711.084 68.605 707.448 67.4598 703.266 66.4509C703.26 66.4494 703.254 66.4479 703.247 66.4464L691.176 63.4147L691.161 63.4112C682.236 61.2401 675.499 57.9186 670.699 53.6307C666.245 49.6516 663.921 44.2789 663.953 37.0529L663.953 37.0333L663.953 37.0138C663.921 31.0606 665.489 26.0298 668.565 21.752C671.754 17.3664 676.171 13.8656 681.966 11.2974C687.742 8.7374 694.408 7.41016 702.039 7.41016C709.83 7.41016 716.434 8.74259 721.956 11.276L721.964 11.2797C727.563 13.8335 731.771 17.3104 734.748 21.6662C737 24.9618 738.446 28.6768 739.049 32.8726H724.167C723.096 29.0707 720.929 25.8745 717.644 23.4555C713.448 20.3665 708.052 19.0429 701.876 19.0429C697.7 19.0429 693.922 19.6292 690.67 20.961C687.499 22.2245 684.826 24.0868 682.894 26.6629L682.879 26.6827L682.864 26.7028C680.991 29.2663 680.048 32.2052 680.033 35.3893Z" fill="#BED5F3"/>
<path d="M391.101 186.308C390.667 181.933 388.805 178.535 385.515 176.112C382.225 173.69 377.76 172.478 372.119 172.478C368.287 172.478 365.051 173.021 362.411 174.105C359.772 175.154 357.747 176.618 356.337 178.498C354.963 180.379 354.276 182.512 354.276 184.898C354.204 186.887 354.62 188.622 355.524 190.105C356.464 191.587 357.747 192.87 359.374 193.955C361.001 195.004 362.882 195.926 365.015 196.721C367.148 197.48 369.426 198.131 371.848 198.673L381.827 201.06C386.672 202.144 391.119 203.591 395.169 205.399C399.218 207.206 402.725 209.43 405.69 212.069C408.655 214.709 410.951 217.818 412.578 221.398C414.241 224.977 415.091 229.081 415.127 233.709C415.091 240.506 413.355 246.399 409.921 251.389C406.522 256.342 401.605 260.193 395.169 262.941C388.769 265.653 381.05 267.008 372.011 267.008C363.044 267.008 355.234 265.635 348.582 262.887C341.965 260.139 336.795 256.071 333.071 250.684C329.383 245.261 327.449 238.554 327.268 230.563H349.992C350.245 234.287 351.312 237.397 353.192 239.891C355.108 242.35 357.657 244.212 360.839 245.478C364.057 246.707 367.69 247.321 371.74 247.321C375.717 247.321 379.17 246.743 382.098 245.586C385.063 244.429 387.359 242.82 388.986 240.759C390.613 238.698 391.427 236.33 391.427 233.654C391.427 231.16 390.686 229.063 389.203 227.363C387.757 225.664 385.624 224.218 382.803 223.025C380.019 221.831 376.603 220.747 372.553 219.771L360.459 216.733C351.095 214.456 343.701 210.894 338.277 206.049C332.854 201.204 330.16 194.678 330.196 186.471C330.16 179.746 331.95 173.87 335.566 168.845C339.217 163.819 344.225 159.896 350.588 157.076C356.952 154.256 364.183 152.846 372.282 152.846C380.526 152.846 387.721 154.256 393.867 157.076C400.05 159.896 404.859 163.819 408.294 168.845C411.728 173.87 413.5 179.692 413.608 186.308H391.101Z" fill="white"/>
<path d="M426.692 173.726V154.364H517.914V173.726H483.909V265.436H460.697V173.726H426.692Z" fill="white"/>
<path d="M538.51 265.436H513.345L551.688 154.364H581.951L620.24 265.436H595.076L567.254 179.746H566.386L538.51 265.436ZM536.937 221.777H596.377V240.108H536.937V221.777Z" fill="white"/>
<path d="M726.39 193.25H702.635C702.202 190.177 701.316 187.447 699.978 185.061C698.64 182.638 696.923 180.577 694.826 178.878C692.729 177.179 690.306 175.877 687.558 174.973C684.847 174.069 681.9 173.617 678.718 173.617C672.969 173.617 667.962 175.046 663.695 177.902C659.429 180.722 656.121 184.844 653.771 190.267C651.42 195.654 650.245 202.199 650.245 209.9C650.245 217.818 651.42 224.471 653.771 229.858C656.157 235.245 659.483 239.313 663.75 242.061C668.016 244.809 672.951 246.183 678.555 246.183C681.701 246.183 684.612 245.767 687.287 244.935C689.999 244.104 692.403 242.892 694.5 241.301C696.597 239.674 698.333 237.704 699.707 235.39C701.117 233.076 702.093 230.437 702.635 227.472L726.39 227.58C725.775 232.678 724.239 237.595 721.78 242.332C719.358 247.032 716.085 251.244 711.964 254.968C707.878 258.656 702.997 261.585 697.32 263.754C691.68 265.888 685.299 266.954 678.176 266.954C668.269 266.954 659.411 264.713 651.601 260.229C643.828 255.746 637.681 249.256 633.162 240.759C628.678 232.262 626.437 221.976 626.437 209.9C626.437 197.788 628.714 187.483 633.27 178.987C637.826 170.49 644.008 164.018 651.818 159.571C659.628 155.087 668.414 152.846 678.176 152.846C684.612 152.846 690.577 153.75 696.073 155.557C701.605 157.365 706.504 160.005 710.771 163.476C715.037 166.91 718.508 171.123 721.183 176.112C723.895 181.102 725.631 186.814 726.39 193.25Z" fill="white"/>
<path d="M743.23 265.436V154.364H766.713V203.338H768.177L808.148 154.364H836.295L795.077 204.097L836.783 265.436H808.69L778.265 219.771L766.713 233.871V265.436H743.23Z" fill="white"/>
<path fill-rule="evenodd" clip-rule="evenodd" d="M356.337 178.498C357.747 176.618 359.772 175.154 362.411 174.105C365.051 173.021 368.287 172.478 372.119 172.478C377.76 172.478 382.225 173.69 385.515 176.112C388.805 178.535 390.667 181.933 391.101 186.308H413.608C413.586 184.941 413.493 183.607 413.328 182.308C412.697 177.32 411.019 172.832 408.294 168.845C404.859 163.819 400.05 159.896 393.867 157.076C387.721 154.256 380.526 152.846 372.282 152.846C364.183 152.846 356.952 154.256 350.588 157.076C344.225 159.896 339.217 163.819 335.566 168.845C331.95 173.87 330.16 179.746 330.196 186.471C330.16 194.678 332.854 201.204 338.277 206.049C343.701 210.894 351.095 214.456 360.459 216.733L372.553 219.771C376.603 220.747 380.019 221.831 382.803 223.025C385.624 224.218 387.757 225.664 389.203 227.363C390.686 229.063 391.427 231.16 391.427 233.654C391.427 236.33 390.613 238.698 388.986 240.759C387.359 242.82 385.063 244.429 382.098 245.586C379.17 246.743 375.717 247.321 371.74 247.321C367.69 247.321 364.057 246.707 360.839 245.478C357.657 244.212 355.108 242.35 353.192 239.891C351.312 237.397 350.245 234.287 349.992 230.563H327.268C327.299 231.934 327.381 233.268 327.516 234.563C328.164 240.818 330.016 246.191 333.071 250.684C336.795 256.071 341.965 260.139 348.582 262.887C355.234 265.635 363.044 267.008 372.011 267.008C381.05 267.008 388.769 265.653 395.169 262.941C401.605 260.193 406.522 256.342 409.921 251.389C413.355 246.399 415.091 240.506 415.127 233.709C415.091 229.081 414.241 224.977 412.578 221.398C410.951 217.818 408.655 214.709 405.69 212.069C402.725 209.43 399.218 207.206 395.169 205.399C391.119 203.591 386.672 202.144 381.827 201.06L371.848 198.673C369.426 198.131 367.148 197.48 365.015 196.721C362.882 195.926 361.001 195.004 359.374 193.955C357.747 192.87 356.464 191.587 355.524 190.105C354.62 188.622 354.204 186.887 354.276 184.898C354.276 182.512 354.963 180.379 356.337 178.498ZM370.945 202.57C368.39 201.997 365.965 201.305 363.673 200.489L363.645 200.479L363.617 200.469C361.26 199.59 359.114 198.546 357.208 197.317L357.181 197.301L357.156 197.283C355.117 195.924 353.418 194.252 352.146 192.247L352.127 192.217L352.109 192.187C350.752 189.962 350.193 187.453 350.277 184.825C350.291 181.641 351.234 178.702 353.108 176.138L353.122 176.118L353.137 176.098C355.069 173.522 357.742 171.66 360.913 170.397C364.165 169.065 367.943 168.478 372.119 168.478C378.295 168.478 383.691 169.802 387.887 172.891C391.172 175.31 393.339 178.506 394.41 182.308H409.292C408.689 178.112 407.243 174.397 404.991 171.102C402.014 166.746 397.806 163.269 392.207 160.715L392.199 160.712C386.678 158.178 380.073 156.846 372.282 156.846C364.651 156.846 357.985 158.173 352.209 160.733C346.414 163.301 341.996 166.802 338.807 171.188C335.732 175.466 334.164 180.497 334.196 186.449L334.196 186.469L334.196 186.488C334.165 193.714 336.488 199.087 340.942 203.066C345.742 207.354 352.479 210.676 361.404 212.847L361.419 212.85L373.509 215.886C377.691 216.895 381.327 218.04 384.371 219.345C387.551 220.691 390.265 222.447 392.234 224.753C394.41 227.256 395.427 230.312 395.427 233.654C395.427 237.211 394.321 240.456 392.126 243.238C389.975 245.963 387.044 247.949 383.56 249.309C380.06 250.691 376.09 251.321 371.74 251.321C367.286 251.321 363.157 250.645 359.411 249.214L359.386 249.204L359.36 249.194C355.585 247.693 352.432 245.424 350.037 242.35L350.017 242.325L349.997 242.299C348.284 240.026 347.148 237.422 346.523 234.563H331.539C332.166 240.078 333.815 244.66 336.37 248.422C339.615 253.112 344.144 256.712 350.114 259.192C356.178 261.696 363.446 263.008 372.011 263.008C380.667 263.008 387.825 261.708 393.607 259.258C399.457 256.759 403.722 253.353 406.622 249.126L406.626 249.121C409.547 244.878 411.09 239.799 411.127 233.714C411.091 229.571 410.332 226.056 408.95 223.083L408.943 223.068L408.937 223.053C407.543 219.986 405.583 217.329 403.031 215.057C400.406 212.721 397.256 210.711 393.538 209.051C389.759 207.364 385.569 205.996 380.953 204.963L380.925 204.957L370.945 202.57ZM460.697 173.726V265.436H483.909V173.726H517.914V154.364H426.692V173.726H460.697ZM430.692 169.726H464.697V261.436H479.909V169.726H513.914V158.364H430.692V169.726ZM595.076 265.436H620.24L581.951 154.364H551.688L513.345 265.436H538.51L546.749 240.108H586.852L595.076 265.436ZM591 239.5L597.982 261.436H614.63L599.58 217.777L591 239.5ZM599.58 217.777L579.099 158.364H554.539L532.937 220.941L547.205 225.777L563.481 175.746H570.16L586.405 225.777L599.58 217.777ZM580.9 221.777L567.254 179.746H566.386L552.712 221.777H580.9ZM586.405 225.777H547.205L543.879 236L589.759 236.108L586.405 225.777ZM541.241 244.108L547.205 225.777L532.937 220.941L526.703 239L541.241 244.108ZM599.58 217.777L586.405 225.777L589.759 236.108L591 239.5L599.58 217.777ZM532.937 220.941L526.703 239L541.241 244.108L535.604 261.436H518.957L532.937 220.941ZM653.771 229.858C651.42 224.471 650.245 217.818 650.245 209.9C650.245 202.199 651.42 195.654 653.771 190.267C656.121 184.844 659.429 180.722 663.695 177.902C667.962 175.046 672.969 173.617 678.718 173.617C681.9 173.617 684.847 174.069 687.558 174.973C690.306 175.877 692.729 177.179 694.826 178.878C696.923 180.577 698.64 182.638 699.978 185.061C701.316 187.447 702.202 190.177 702.635 193.25H726.39C726.229 191.884 726.024 190.551 725.775 189.25C724.85 184.422 723.32 180.043 721.183 176.112C718.508 171.123 715.037 166.91 710.771 163.476C706.504 160.005 701.605 157.365 696.073 155.557C690.577 153.75 684.612 152.846 678.176 152.846C668.414 152.846 659.628 155.087 651.818 159.571C644.008 164.018 637.826 170.49 633.27 178.987C628.714 187.483 626.437 197.788 626.437 209.9C626.437 221.976 628.678 232.262 633.162 240.759C637.681 249.256 643.828 255.746 651.601 260.229C659.411 264.713 668.269 266.954 678.176 266.954C685.299 266.954 691.68 265.888 697.32 263.754C702.997 261.585 707.878 258.656 711.964 254.968C716.085 251.244 719.358 247.032 721.78 242.332C723.59 238.845 724.9 235.26 725.711 231.577C726.001 230.257 726.228 228.925 726.39 227.58L702.635 227.472C702.093 230.437 701.117 233.076 699.707 235.39C698.333 237.704 696.597 239.674 694.5 241.301C692.403 242.892 689.999 244.104 687.287 244.935C684.612 245.767 681.701 246.183 678.555 246.183C672.951 246.183 668.016 244.809 663.75 242.061C659.483 239.313 656.157 235.245 653.771 229.858ZM703.134 237.452C701.51 240.183 699.445 242.528 696.952 244.462L696.935 244.475L696.918 244.488C694.421 246.382 691.592 247.798 688.47 248.756C685.367 249.72 682.053 250.183 678.555 250.183C672.266 250.183 666.562 248.63 661.584 245.424C656.56 242.188 652.764 237.462 650.113 231.478L650.109 231.468L650.104 231.458C647.472 225.423 646.245 218.188 646.245 209.9C646.245 201.814 647.476 194.695 650.101 188.674C652.709 182.658 656.476 177.882 661.48 174.571C666.48 171.227 672.28 169.617 678.718 169.617C682.279 169.617 685.655 170.123 688.816 171.176C691.989 172.221 694.845 173.746 697.344 175.77C699.848 177.8 701.893 180.258 703.473 183.115C704.537 185.016 705.345 187.067 705.913 189.25H721.696C720.831 185.089 719.48 181.355 717.669 178.022L717.664 178.012L717.658 178.002C715.227 173.469 712.097 169.679 708.262 166.591L708.254 166.585L708.246 166.578C704.382 163.435 699.923 161.024 694.831 159.36L694.823 159.357C689.773 157.696 684.234 156.846 678.176 156.846C669.052 156.846 660.963 158.933 653.81 163.04L653.797 163.047C646.69 167.094 641.022 172.993 636.795 180.877C632.621 188.662 630.437 198.281 630.437 209.9C630.437 221.487 632.587 231.096 636.697 238.888C640.889 246.766 646.521 252.68 653.593 256.76M703.134 237.452C704.257 235.606 705.134 233.612 705.777 231.486L721.609 231.558C720.868 234.598 719.744 237.573 718.23 240.489L718.224 240.499C716.034 244.75 713.065 248.583 709.282 252C705.602 255.322 701.16 258.004 695.901 260.015C690.788 261.948 684.899 262.954 678.176 262.954C668.896 262.954 660.737 260.861 653.593 256.76M766.713 154.364H743.23V265.436H766.713V233.871L778.265 219.771L808.69 265.436H836.783L795.077 204.097L836.295 154.364H808.148L768.177 203.338H766.713V154.364ZM810.046 158.364L770.076 207.338H762.713V158.364H747.23V261.436H762.713V232.442L778.596 213.054L810.832 261.436H829.227L790.079 203.859L827.785 158.364H810.046Z" fill="#BED5F3"/>
<mask id="mask0_24_239" style="mask-type:luminance" maskUnits="userSpaceOnUse" x="0" y="0" width="82" height="288">
<path d="M0 0.763916H81.3528V287.783H0V0.763916Z" fill="white"/>
</mask>
<g mask="url(#mask0_24_239)">
<path d="M0 0.763916H80.375V287.435H0V0.763916Z" fill="#76ADE6"/>
<path fill-rule="evenodd" clip-rule="evenodd" d="M76.375 4.76392H4V283.435H76.375V4.76392ZM0 0.763916V287.435H80.375V0.763916H0Z" fill="white"/>
</g>
<mask id="mask1_24_239" style="mask-type:luminance" maskUnits="userSpaceOnUse" x="107" y="0" width="82" height="288">
<path d="M107.048 0.763916H188.401V287.783H107.048V0.763916Z" fill="white"/>
<path fill-rule="evenodd" clip-rule="evenodd" d="M184.401 4.76392H111.048V283.783H184.401V4.76392ZM107.048 0.763916V287.783H188.401V0.763916H107.048Z" fill="white"/>
</mask>
<g mask="url(#mask1_24_239)">
<path d="M109.048 2.76392H185.423V285.435H109.048V2.76392Z" fill="#BED5F3" stroke="white" stroke-width="4"/>
<mask id="path-11-inside-1_24_239" fill="white">
<path fill-rule="evenodd" clip-rule="evenodd" d="M183.423 4.76392H111.048V283.435H183.423V4.76392ZM107.048 0.763916V287.435H187.423V0.763916H107.048Z"/>
</mask>
<path fill-rule="evenodd" clip-rule="evenodd" d="M183.423 4.76392H111.048V283.435H183.423V4.76392ZM107.048 0.763916V287.435H187.423V0.763916H107.048Z" fill="#BED5F3"/>
<path d="M111.048 4.76392V0.763916H107.048V4.76392H111.048ZM183.423 4.76392H187.423V0.763916H183.423V4.76392ZM111.048 283.435H107.048V287.435H111.048V283.435ZM183.423 283.435V287.435H187.423V283.435H183.423ZM107.048 0.763916V-3.23608H103.048V0.763916H107.048ZM107.048 287.435H103.048V291.435H107.048V287.435ZM187.423 287.435V291.435H191.423V287.435H187.423ZM187.423 0.763916H191.423V-3.23608H187.423V0.763916ZM111.048 8.76392H183.423V0.763916H111.048V8.76392ZM115.048 283.435V4.76392H107.048V283.435H115.048ZM183.423 279.435H111.048V287.435H183.423V279.435ZM179.423 4.76392V283.435H187.423V4.76392H179.423ZM107.048 4.76392H187.423V-3.23608H107.048V4.76392ZM111.048 287.435V0.763916H103.048V287.435H111.048ZM187.423 283.435H107.048V291.435H187.423V283.435ZM183.423 0.763916V287.435H191.423V0.763916H183.423Z" fill="white" mask="url(#path-11-inside-1_24_239)"/>
</g>
<mask id="mask2_24_239" style="mask-type:luminance" maskUnits="userSpaceOnUse" x="212" y="0" width="82" height="288">
<path d="M212.406 0.763916H293.759V287.783H212.406V0.763916Z" fill="white"/>
</mask>
<g mask="url(#mask2_24_239)">
<path d="M212.406 0.763916H292.781V287.435H212.406V0.763916Z" fill="white"/>
</g>
</svg>
