<svg id="visual" viewBox="0 0 900 600" width="900" height="600" xmlns="http://www.w3.org/2000/svg" xmlns:xlink="http://www.w3.org/1999/xlink" version="1.1"><g stroke-width="1" stroke-linejoin="bevel"><path d="M425.1 284L422.1 230L355.3 282Z" fill="#4b6d91" stroke="#4b6d91"></path><path d="M422.1 230L316.3 226L355.3 282Z" fill="#4b6d91" stroke="#4b6d91"></path><path d="M422.1 230L401.1 171L316.3 226Z" fill="#5c86b2" stroke="#5c86b2"></path><path d="M425.1 284L479.9 215L422.1 230Z" fill="#72a6dd" stroke="#72a6dd"></path><path d="M422.1 230L479.9 215L401.1 171Z" fill="#6492c3" stroke="#6492c3"></path><path d="M386.1 388L474.9 325L425.1 284Z" fill="#4b6d91" stroke="#4b6d91"></path><path d="M425.1 284L474.9 325L479.9 215Z" fill="#5c86b2" stroke="#5c86b2"></path><path d="M312.3 389L386.1 388L355.3 282Z" fill="#4b6d91" stroke="#4b6d91"></path><path d="M355.3 282L386.1 388L425.1 284Z" fill="#76ade6" stroke="#76ade6"></path><path d="M401.1 171L316.3 149L316.3 226Z" fill="#6da0d5" stroke="#6da0d5"></path><path d="M245.5 219L258.5 277L316.3 226Z" fill="#4f7399" stroke="#4f7399"></path><path d="M316.3 226L258.5 277L355.3 282Z" fill="#76ade6" stroke="#76ade6"></path><path d="M316.3 149L245.5 219L316.3 226Z" fill="#6da0d5" stroke="#6da0d5"></path><path d="M258.5 277L312.3 389L355.3 282Z" fill="#5c86b2" stroke="#5c86b2"></path><path d="M479.9 215L478.9 129L401.1 171Z" fill="#4f7399" stroke="#4f7399"></path><path d="M401.1 171L433.1 73L316.3 149Z" fill="#5c86b2" stroke="#5c86b2"></path><path d="M487.9 443L517.9 354L474.9 325Z" fill="#4f7399" stroke="#4f7399"></path><path d="M474.9 325L557.7 237L479.9 215Z" fill="#5c86b2" stroke="#5c86b2"></path><path d="M479.9 215L585.7 162L478.9 129Z" fill="#608cbb" stroke="#608cbb"></path><path d="M589.7 285L557.7 237L474.9 325Z" fill="#4b6d91" stroke="#4b6d91"></path><path d="M258.5 277L263.5 399L312.3 389Z" fill="#6492c3" stroke="#6492c3"></path><path d="M417.1 476L487.9 443L386.1 388Z" fill="#577faa" stroke="#577faa"></path><path d="M176.6 316L263.5 399L258.5 277Z" fill="#4f7399" stroke="#4f7399"></path><path d="M478.9 129L433.1 73L401.1 171Z" fill="#6999cc" stroke="#6999cc"></path><path d="M251.5 92L238.5 130L316.3 149Z" fill="#6da0d5" stroke="#6da0d5"></path><path d="M316.3 149L238.5 130L245.5 219Z" fill="#4f7399" stroke="#4f7399"></path><path d="M517.9 354L589.7 285L474.9 325Z" fill="#6492c3" stroke="#6492c3"></path><path d="M433.1 73L300.3 78L316.3 149Z" fill="#4f7399" stroke="#4f7399"></path><path d="M478.9 129L508.9 90L433.1 73Z" fill="#6999cc" stroke="#6999cc"></path><path d="M585.7 162L508.9 90L478.9 129Z" fill="#6999cc" stroke="#6999cc"></path><path d="M585.7 162L479.9 215L557.7 237Z" fill="#6999cc" stroke="#6999cc"></path><path d="M342.3 462L386.1 388L312.3 389Z" fill="#4f7399" stroke="#4f7399"></path><path d="M386.1 388L487.9 443L474.9 325Z" fill="#72a6dd" stroke="#72a6dd"></path><path d="M517.9 354L589.7 387L589.7 285Z" fill="#577faa" stroke="#577faa"></path><path d="M263.5 399L342.3 462L312.3 389Z" fill="#577faa" stroke="#577faa"></path><path d="M300.3 78L251.5 92L316.3 149Z" fill="#6492c3" stroke="#6492c3"></path><path d="M647.5 234L585.7 162L557.7 237Z" fill="#4b6d91" stroke="#4b6d91"></path><path d="M342.3 462L417.1 476L386.1 388Z" fill="#5379a2" stroke="#5379a2"></path><path d="M163.6 236L258.5 277L245.5 219Z" fill="#4b6d91" stroke="#4b6d91"></path><path d="M163.6 236L176.6 316L258.5 277Z" fill="#6492c3" stroke="#6492c3"></path><path d="M152.6 168L245.5 219L238.5 130Z" fill="#608cbb" stroke="#608cbb"></path><path d="M152.6 168L163.6 236L245.5 219Z" fill="#5379a2" stroke="#5379a2"></path><path d="M571.7 450L589.7 387L517.9 354Z" fill="#4b6d91" stroke="#4b6d91"></path><path d="M302.3 523L386.1 502L342.3 462Z" fill="#5379a2" stroke="#5379a2"></path><path d="M342.3 462L386.1 502L417.1 476Z" fill="#5c86b2" stroke="#5c86b2"></path><path d="M483.9 505L571.7 450L487.9 443Z" fill="#4b6d91" stroke="#4b6d91"></path><path d="M487.9 443L571.7 450L517.9 354Z" fill="#5379a2" stroke="#5379a2"></path><path d="M65.8 325L162.6 361L176.6 316Z" fill="#4b6d91" stroke="#4b6d91"></path><path d="M176.6 316L162.6 361L263.5 399Z" fill="#76ade6" stroke="#76ade6"></path><path d="M263.5 399L229.5 454L342.3 462Z" fill="#76ade6" stroke="#76ade6"></path><path d="M163.6 426L229.5 454L263.5 399Z" fill="#4b6d91" stroke="#4b6d91"></path><path d="M589.7 387L638.5 318L589.7 285Z" fill="#6492c3" stroke="#6492c3"></path><path d="M589.7 285L647.5 234L557.7 237Z" fill="#6da0d5" stroke="#6da0d5"></path><path d="M139.6 56L152.6 168L238.5 130Z" fill="#72a6dd" stroke="#72a6dd"></path><path d="M163.6 236L65.8 325L176.6 316Z" fill="#608cbb" stroke="#608cbb"></path><path d="M638.5 318L647.5 234L589.7 285Z" fill="#6da0d5" stroke="#6da0d5"></path><path d="M504.9 0L394.1 0L433.1 73Z" fill="#5c86b2" stroke="#5c86b2"></path><path d="M433.1 73L394.1 0L300.3 78Z" fill="#5c86b2" stroke="#5c86b2"></path><path d="M300.3 78L216.5 0L251.5 92Z" fill="#76ade6" stroke="#76ade6"></path><path d="M630.5 128L583.7 82L585.7 162Z" fill="#5c86b2" stroke="#5c86b2"></path><path d="M585.7 162L583.7 82L508.9 90Z" fill="#4f7399" stroke="#4f7399"></path><path d="M508.9 90L504.9 0L433.1 73Z" fill="#577faa" stroke="#577faa"></path><path d="M589.7 387L660.5 400L638.5 318Z" fill="#6492c3" stroke="#6492c3"></path><path d="M483.9 505L487.9 443L417.1 476Z" fill="#6492c3" stroke="#6492c3"></path><path d="M386.1 502L483.9 505L417.1 476Z" fill="#4b6d91" stroke="#4b6d91"></path><path d="M394.1 0L334.3 0L300.3 78Z" fill="#4f7399" stroke="#4f7399"></path><path d="M251.5 92L139.6 56L238.5 130Z" fill="#76ade6" stroke="#76ade6"></path><path d="M647.5 234L630.5 128L585.7 162Z" fill="#608cbb" stroke="#608cbb"></path><path d="M229.5 454L302.3 523L342.3 462Z" fill="#72a6dd" stroke="#72a6dd"></path><path d="M386.1 502L420.1 600L483.9 505Z" fill="#5379a2" stroke="#5379a2"></path><path d="M162.6 361L163.6 426L263.5 399Z" fill="#6999cc" stroke="#6999cc"></path><path d="M229.5 454L242.5 515L302.3 523Z" fill="#6492c3" stroke="#6492c3"></path><path d="M61.8 371L163.6 426L162.6 361Z" fill="#4b6d91" stroke="#4b6d91"></path><path d="M544.7 0L508.9 90L583.7 82Z" fill="#6999cc" stroke="#6999cc"></path><path d="M544.7 0L504.9 0L508.9 90Z" fill="#76ade6" stroke="#76ade6"></path><path d="M708.4 166L632.5 92L630.5 128Z" fill="#4b6d91" stroke="#4b6d91"></path><path d="M630.5 128L632.5 92L583.7 82Z" fill="#6999cc" stroke="#6999cc"></path><path d="M164.6 519L242.5 515L229.5 454Z" fill="#5379a2" stroke="#5379a2"></path><path d="M640.5 0L544.7 0L583.7 82Z" fill="#72a6dd" stroke="#72a6dd"></path><path d="M649.5 443L589.7 387L571.7 450Z" fill="#6492c3" stroke="#6492c3"></path><path d="M649.5 443L660.5 400L589.7 387Z" fill="#6da0d5" stroke="#6da0d5"></path><path d="M638.5 318L712.4 314L647.5 234Z" fill="#577faa" stroke="#577faa"></path><path d="M501.9 600L566.7 516L483.9 505Z" fill="#76ade6" stroke="#76ade6"></path><path d="M483.9 505L566.7 516L571.7 450Z" fill="#72a6dd" stroke="#72a6dd"></path><path d="M334.3 0L216.5 0L300.3 78Z" fill="#72a6dd" stroke="#72a6dd"></path><path d="M566.7 516L649.5 443L571.7 450Z" fill="#4b6d91" stroke="#4b6d91"></path><path d="M70.8 176L72.8 236L152.6 168Z" fill="#6da0d5" stroke="#6da0d5"></path><path d="M152.6 168L72.8 236L163.6 236Z" fill="#72a6dd" stroke="#72a6dd"></path><path d="M216.5 0L139.6 56L251.5 92Z" fill="#577faa" stroke="#577faa"></path><path d="M713.4 385L712.4 314L638.5 318Z" fill="#4f7399" stroke="#4f7399"></path><path d="M647.5 234L708.4 166L630.5 128Z" fill="#4b6d91" stroke="#4b6d91"></path><path d="M713.4 385L638.5 318L660.5 400Z" fill="#4b6d91" stroke="#4b6d91"></path><path d="M75.8 68L70.8 176L152.6 168Z" fill="#6999cc" stroke="#6999cc"></path><path d="M735.4 248L708.4 166L647.5 234Z" fill="#5379a2" stroke="#5379a2"></path><path d="M632.5 92L640.5 0L583.7 82Z" fill="#5c86b2" stroke="#5c86b2"></path><path d="M0 295L65.8 325L72.8 236Z" fill="#4f7399" stroke="#4f7399"></path><path d="M72.8 236L65.8 325L163.6 236Z" fill="#72a6dd" stroke="#72a6dd"></path><path d="M163.6 426L164.6 519L229.5 454Z" fill="#6492c3" stroke="#6492c3"></path><path d="M339.3 600L386.1 502L302.3 523Z" fill="#4f7399" stroke="#4f7399"></path><path d="M339.3 600L420.1 600L386.1 502Z" fill="#577faa" stroke="#577faa"></path><path d="M712.4 314L735.4 248L647.5 234Z" fill="#5c86b2" stroke="#5c86b2"></path><path d="M94.8 454L164.6 519L163.6 426Z" fill="#577faa" stroke="#577faa"></path><path d="M257.5 600L339.3 600L302.3 523Z" fill="#577faa" stroke="#577faa"></path><path d="M257.5 600L302.3 523L242.5 515Z" fill="#6999cc" stroke="#6999cc"></path><path d="M723.4 431L713.4 385L660.5 400Z" fill="#6999cc" stroke="#6999cc"></path><path d="M829.2 278L825.2 229L735.4 248Z" fill="#608cbb" stroke="#608cbb"></path><path d="M0 354L61.8 371L65.8 325Z" fill="#6da0d5" stroke="#6da0d5"></path><path d="M65.8 325L61.8 371L162.6 361Z" fill="#5379a2" stroke="#5379a2"></path><path d="M216.5 0L156.6 0L139.6 56Z" fill="#6999cc" stroke="#6999cc"></path><path d="M139.6 56L75.8 68L152.6 168Z" fill="#5c86b2" stroke="#5c86b2"></path><path d="M61.8 371L94.8 454L163.6 426Z" fill="#76ade6" stroke="#76ade6"></path><path d="M420.1 600L501.9 600L483.9 505Z" fill="#577faa" stroke="#577faa"></path><path d="M759.4 502L723.4 431L649.5 443Z" fill="#5379a2" stroke="#5379a2"></path><path d="M649.5 443L723.4 431L660.5 400Z" fill="#5379a2" stroke="#5379a2"></path><path d="M726.4 0L640.5 0L632.5 92Z" fill="#4f7399" stroke="#4f7399"></path><path d="M177.6 600L257.5 600L242.5 515Z" fill="#5379a2" stroke="#5379a2"></path><path d="M107.8 0L75.8 68L139.6 56Z" fill="#4f7399" stroke="#4f7399"></path><path d="M635.5 552L649.5 443L566.7 516Z" fill="#6da0d5" stroke="#6da0d5"></path><path d="M829.2 278L735.4 248L712.4 314Z" fill="#76ade6" stroke="#76ade6"></path><path d="M597.7 600L635.5 552L566.7 516Z" fill="#6492c3" stroke="#6492c3"></path><path d="M156.6 0L107.8 0L139.6 56Z" fill="#5c86b2" stroke="#5c86b2"></path><path d="M0 212L0 295L72.8 236Z" fill="#608cbb" stroke="#608cbb"></path><path d="M61.8 371L0 477L94.8 454Z" fill="#76ade6" stroke="#76ade6"></path><path d="M0 212L72.8 236L70.8 176Z" fill="#5c86b2" stroke="#5c86b2"></path><path d="M0 172L70.8 176L0 82Z" fill="#76ade6" stroke="#76ade6"></path><path d="M0 172L0 212L70.8 176Z" fill="#6999cc" stroke="#6999cc"></path><path d="M501.9 600L597.7 600L566.7 516Z" fill="#6999cc" stroke="#6999cc"></path><path d="M0 82L70.8 176L75.8 68Z" fill="#72a6dd" stroke="#72a6dd"></path><path d="M0 295L0 354L65.8 325Z" fill="#6492c3" stroke="#6492c3"></path><path d="M98.8 600L177.6 600L164.6 519Z" fill="#5c86b2" stroke="#5c86b2"></path><path d="M164.6 519L177.6 600L242.5 515Z" fill="#4f7399" stroke="#4f7399"></path><path d="M75.8 528L164.6 519L94.8 454Z" fill="#5379a2" stroke="#5379a2"></path><path d="M836.2 122L755.4 64L708.4 166Z" fill="#76ade6" stroke="#76ade6"></path><path d="M708.4 166L755.4 64L632.5 92Z" fill="#6999cc" stroke="#6999cc"></path><path d="M825.2 229L708.4 166L735.4 248Z" fill="#76ade6" stroke="#76ade6"></path><path d="M0 477L75.8 528L94.8 454Z" fill="#6da0d5" stroke="#6da0d5"></path><path d="M755.4 64L726.4 0L632.5 92Z" fill="#72a6dd" stroke="#72a6dd"></path><path d="M0 0L0 82L75.8 68Z" fill="#5379a2" stroke="#5379a2"></path><path d="M829.2 278L712.4 314L822.2 393Z" fill="#4f7399" stroke="#4f7399"></path><path d="M822.2 393L712.4 314L713.4 385Z" fill="#6492c3" stroke="#6492c3"></path><path d="M635.5 552L759.4 502L649.5 443Z" fill="#6999cc" stroke="#6999cc"></path><path d="M723.4 431L822.2 393L713.4 385Z" fill="#5c86b2" stroke="#5c86b2"></path><path d="M673.5 600L759.4 502L635.5 552Z" fill="#5379a2" stroke="#5379a2"></path><path d="M597.7 600L673.5 600L635.5 552Z" fill="#608cbb" stroke="#608cbb"></path><path d="M0 354L0 477L61.8 371Z" fill="#577faa" stroke="#577faa"></path><path d="M75.8 528L98.8 600L164.6 519Z" fill="#6da0d5" stroke="#6da0d5"></path><path d="M0 600L98.8 600L75.8 528Z" fill="#5c86b2" stroke="#5c86b2"></path><path d="M819.2 433L822.2 393L723.4 431Z" fill="#6999cc" stroke="#6999cc"></path><path d="M759.4 502L819.2 433L723.4 431Z" fill="#6da0d5" stroke="#6da0d5"></path><path d="M825.2 229L836.2 122L708.4 166Z" fill="#608cbb" stroke="#608cbb"></path><path d="M755.4 64L830.2 0L726.4 0Z" fill="#6da0d5" stroke="#6da0d5"></path><path d="M900 217L836.2 122L825.2 229Z" fill="#6da0d5" stroke="#6da0d5"></path><path d="M107.8 0L0 0L75.8 68Z" fill="#4b6d91" stroke="#4b6d91"></path><path d="M0 477L0 545L75.8 528Z" fill="#4f7399" stroke="#4f7399"></path><path d="M836.2 122L832.2 47L755.4 64Z" fill="#5c86b2" stroke="#5c86b2"></path><path d="M755.4 600L800.2 531L759.4 502Z" fill="#76ade6" stroke="#76ade6"></path><path d="M759.4 502L800.2 531L819.2 433Z" fill="#608cbb" stroke="#608cbb"></path><path d="M673.5 600L755.4 600L759.4 502Z" fill="#5c86b2" stroke="#5c86b2"></path><path d="M900 356L900 277L829.2 278Z" fill="#6492c3" stroke="#6492c3"></path><path d="M829.2 278L900 277L825.2 229Z" fill="#72a6dd" stroke="#72a6dd"></path><path d="M836.2 122L900 99L832.2 47Z" fill="#5c86b2" stroke="#5c86b2"></path><path d="M900 356L829.2 278L822.2 393Z" fill="#4b6d91" stroke="#4b6d91"></path><path d="M900 356L822.2 393L900 448Z" fill="#4b6d91" stroke="#4b6d91"></path><path d="M900 0L830.2 0L832.2 47Z" fill="#4f7399" stroke="#4f7399"></path><path d="M832.2 47L830.2 0L755.4 64Z" fill="#5379a2" stroke="#5379a2"></path><path d="M900 277L900 217L825.2 229Z" fill="#5c86b2" stroke="#5c86b2"></path><path d="M900 448L822.2 393L819.2 433Z" fill="#72a6dd" stroke="#72a6dd"></path><path d="M0 545L0 600L75.8 528Z" fill="#608cbb" stroke="#608cbb"></path><path d="M900 217L900 124L836.2 122Z" fill="#6492c3" stroke="#6492c3"></path><path d="M900 124L900 99L836.2 122Z" fill="#5c86b2" stroke="#5c86b2"></path><path d="M755.4 600L808.2 600L800.2 531Z" fill="#5c86b2" stroke="#5c86b2"></path><path d="M900 512L900 448L819.2 433Z" fill="#6999cc" stroke="#6999cc"></path><path d="M900 512L819.2 433L800.2 531Z" fill="#72a6dd" stroke="#72a6dd"></path><path d="M900 600L900 512L800.2 531Z" fill="#6492c3" stroke="#6492c3"></path><path d="M900 99L900 0L832.2 47Z" fill="#608cbb" stroke="#608cbb"></path><path d="M808.2 600L900 600L800.2 531Z" fill="#608cbb" stroke="#608cbb"></path></g></svg>