<svg id="visual" viewBox="0 0 900 600" width="900" height="600" xmlns="http://www.w3.org/2000/svg" xmlns:xlink="http://www.w3.org/1999/xlink" version="1.1"><rect x="0" y="0" width="900" height="600" fill="#ffffff"></rect><path d="M0 387L11.5 387C23 387 46 387 69 383.7C92 380.3 115 373.7 138.2 374.7C161.3 375.7 184.7 384.3 207.8 388.8C231 393.3 254 393.7 277 398.5C300 403.3 323 412.7 346 403.7C369 394.7 392 367.3 415.2 364.8C438.3 362.3 461.7 384.7 484.8 385.5C508 386.3 531 365.7 554 373C577 380.3 600 415.7 623 422.2C646 428.7 669 406.3 692.2 399.8C715.3 393.3 738.7 402.7 761.8 405.3C785 408 808 404 831 395.5C854 387 877 374 888.5 367.5L900 361L900 601L888.5 601C877 601 854 601 831 601C808 601 785 601 761.8 601C738.7 601 715.3 601 692.2 601C669 601 646 601 623 601C600 601 577 601 554 601C531 601 508 601 484.8 601C461.7 601 438.3 601 415.2 601C392 601 369 601 346 601C323 601 300 601 277 601C254 601 231 601 207.8 601C184.7 601 161.3 601 138.2 601C115 601 92 601 69 601C46 601 23 601 11.5 601L0 601Z" fill="#bed5f3"></path><path d="M0 467L11.5 458.8C23 450.7 46 434.3 69 437.7C92 441 115 464 138.2 465.8C161.3 467.7 184.7 448.3 207.8 440.2C231 432 254 435 277 430.8C300 426.7 323 415.3 346 410.2C369 405 392 406 415.2 412.5C438.3 419 461.7 431 484.8 439.5C508 448 531 453 554 454.8C577 456.7 600 455.3 623 445.7C646 436 669 418 692.2 422.3C715.3 426.7 738.7 453.3 761.8 464C785 474.7 808 469.3 831 468.2C854 467 877 470 888.5 471.5L900 473L900 601L888.5 601C877 601 854 601 831 601C808 601 785 601 761.8 601C738.7 601 715.3 601 692.2 601C669 601 646 601 623 601C600 601 577 601 554 601C531 601 508 601 484.8 601C461.7 601 438.3 601 415.2 601C392 601 369 601 346 601C323 601 300 601 277 601C254 601 231 601 207.8 601C184.7 601 161.3 601 138.2 601C115 601 92 601 69 601C46 601 23 601 11.5 601L0 601Z" fill="#a8c8ef"></path><path d="M0 454L11.5 458.7C23 463.3 46 472.7 69 479.5C92 486.3 115 490.7 138.2 493.2C161.3 495.7 184.7 496.3 207.8 496.8C231 497.3 254 497.7 277 496.8C300 496 323 494 346 488.3C369 482.7 392 473.3 415.2 475.5C438.3 477.7 461.7 491.3 484.8 496C508 500.7 531 496.3 554 497.7C577 499 600 506 623 511C646 516 669 519 692.2 509.2C715.3 499.3 738.7 476.7 761.8 472.8C785 469 808 484 831 491.7C854 499.3 877 499.7 888.5 499.8L900 500L900 601L888.5 601C877 601 854 601 831 601C808 601 785 601 761.8 601C738.7 601 715.3 601 692.2 601C669 601 646 601 623 601C600 601 577 601 554 601C531 601 508 601 484.8 601C461.7 601 438.3 601 415.2 601C392 601 369 601 346 601C323 601 300 601 277 601C254 601 231 601 207.8 601C184.7 601 161.3 601 138.2 601C115 601 92 601 69 601C46 601 23 601 11.5 601L0 601Z" fill="#90baeb"></path><path d="M0 514L11.5 520.3C23 526.7 46 539.3 69 544.7C92 550 115 548 138.2 546.7C161.3 545.3 184.7 544.7 207.8 539.7C231 534.7 254 525.3 277 527C300 528.7 323 541.3 346 546.2C369 551 392 548 415.2 550.2C438.3 552.3 461.7 559.7 484.8 555C508 550.3 531 533.7 554 532.5C577 531.3 600 545.7 623 543.8C646 542 669 524 692.2 518.2C715.3 512.3 738.7 518.7 761.8 528.8C785 539 808 553 831 555.2C854 557.3 877 547.7 888.5 542.8L900 538L900 601L888.5 601C877 601 854 601 831 601C808 601 785 601 761.8 601C738.7 601 715.3 601 692.2 601C669 601 646 601 623 601C600 601 577 601 554 601C531 601 508 601 484.8 601C461.7 601 438.3 601 415.2 601C392 601 369 601 346 601C323 601 300 601 277 601C254 601 231 601 207.8 601C184.7 601 161.3 601 138.2 601C115 601 92 601 69 601C46 601 23 601 11.5 601L0 601Z" fill="#76ade6"></path></svg>